<?xml version="1.0" standalone="no"?>
<!DOCTYPE svg PUBLIC "-//W3C//DTD SVG 20010904//EN"
 "http://www.w3.org/TR/2001/REC-SVG-20010904/DTD/svg10.dtd">
<svg version="1.0" xmlns="http://www.w3.org/2000/svg"
 width="512.000000pt" height="512.000000pt" viewBox="0 0 512.000000 512.000000"
 preserveAspectRatio="xMidYMid meet">
<metadata>
Created by potrace 1.14, written by Peter Selinger 2001-2017
</metadata>
<g transform="translate(0.000000,512.000000) scale(0.100000,-0.100000)"
fill="#000000" stroke="none">
<path d="M709 5117 c-1 -1 -2 -19 -3 -40 -2 -23 1 -34 7 -28 5 5 16 7 24 4 7
-3 13 -2 12 3 -4 21 2 30 20 31 15 1 19 -4 18 -25 -3 -29 4 -27 -124 -31 l-53
-1 0 -50 0 -50 -44 0 -45 0 -3 -42 c-3 -43 -3 -43 -43 -45 -22 -1 -43 -2 -47
-2 -5 -1 -8 -21 -8 -46 l0 -45 -45 0 -45 0 -1 -62 c-1 -35 -1 -77 -1 -94 0
-29 -2 -31 -39 -31 -25 0 -35 3 -27 8 9 6 9 9 1 9 -18 0 -22 -11 -24 -81 -1
-35 -7 -70 -13 -78 -8 -11 -8 -13 1 -8 21 13 10 -28 -12 -45 -15 -11 -26 -13
-36 -7 -11 8 -10 9 5 7 10 -2 21 2 23 8 2 6 -10 8 -34 6 l-37 -5 32 -26 c33
-27 40 -41 21 -41 -5 0 -8 4 -5 9 3 5 -1 12 -10 15 -12 4 -15 2 -10 -9 3 -8 0
-15 -5 -15 -6 0 -9 9 -6 20 3 11 1 23 -4 26 -14 8 -11 -50 4 -65 9 -11 9 -13
0 -7 -10 6 -13 -15 -14 -86 -2 -153 -4 -197 -13 -205 -4 -4 -5 5 -2 20 3 15 1
25 -4 22 -11 -7 -21 21 -14 40 4 8 11 12 18 8 6 -4 5 1 -3 11 -9 11 -18 13
-24 7 -5 -5 -15 -7 -22 -5 -7 3 -15 -4 -18 -15 -3 -12 -2 -19 3 -16 4 3 10 -2
14 -10 3 -8 -2 -19 -12 -24 -14 -8 -15 -12 -3 -23 12 -11 13 -11 6 1 -6 10 -4
12 5 6 10 -6 9 -11 -4 -20 -18 -13 -18 -35 -1 -47 6 -5 5 -8 -2 -8 -7 0 -13
-9 -13 -19 0 -11 6 -22 13 -24 9 -4 9 -6 -1 -6 -18 -1 -17 -708 1 -730 9 -12
9 -13 -1 -7 -7 4 -12 1 -12 -9 0 -10 5 -14 13 -9 9 6 9 4 -1 -7 -23 -25 -14
-56 21 -70 17 -7 38 -12 45 -12 9 1 6 -6 -7 -18 -24 -23 -39 -25 -21 -4 13 15
14 15 -35 30 -12 3 -14 -9 -12 -70 2 -42 8 -80 15 -87 7 -7 12 -18 12 -24 0
-18 17 -26 26 -13 4 8 3 9 -4 5 -7 -4 -12 -1 -12 8 0 8 6 16 13 19 9 3 9 8 -3
23 -11 15 -11 16 0 7 21 -19 30 -16 26 10 -2 12 -9 21 -16 19 -7 -1 -8 3 -4
10 6 9 3 9 -9 -1 -14 -11 -17 -11 -17 0 0 11 -3 11 -11 -1 -9 -13 -10 -13 -6
0 3 10 15 14 36 13 25 -1 30 1 22 10 -7 9 -7 17 1 27 8 13 9 12 5 -2 -3 -9 -3
-19 1 -23 3 -3 7 -29 9 -58 1 -34 -1 -46 -8 -36 -7 12 -9 11 -9 -3 0 -10 3
-18 8 -18 8 0 13 -140 16 -445 1 -146 5 -195 16 -212 8 -13 19 -23 24 -23 5 0
1 9 -9 20 -10 11 -13 20 -8 20 17 0 36 -28 30 -44 -3 -8 -15 -14 -27 -13 -12
1 -18 6 -16 14 3 7 1 15 -3 17 -5 3 -8 -3 -7 -14 0 -11 5 -20 9 -19 5 0 14 -7
21 -17 17 -22 33 -11 33 22 1 14 7 30 14 36 11 7 10 8 -5 6 -10 -2 -21 3 -23
10 -3 7 1 10 11 6 18 -7 22 11 4 22 -6 4 -8 3 -4 -4 3 -5 0 -9 -6 -8 -18 3
-55 25 -43 26 6 0 17 -6 25 -12 11 -10 11 -9 0 7 -14 19 -14 19 4 5 16 -12 18
-12 11 -1 -5 9 -4 12 2 8 5 -3 10 0 10 8 0 12 -3 12 -16 2 -14 -11 -15 -10 -1
8 14 19 14 19 -5 5 -19 -14 -19 -14 -5 5 11 16 11 17 0 7 -8 -6 -18 -12 -24
-12 -5 0 -1 7 10 16 10 8 14 13 8 10 -7 -3 -10 9 -8 34 1 28 -2 38 -10 33 -6
-4 -5 1 3 10 11 14 11 17 0 17 -9 0 -10 3 -4 8 12 8 13 22 2 40 -5 6 -4 12 2
12 10 0 9 25 -2 36 -10 11 -9 24 3 24 6 0 9 -6 8 -12 -2 -8 6 -12 17 -11 19 1
19 1 3 -11 -10 -7 -15 -16 -11 -19 9 -9 33 12 33 29 0 8 5 14 10 14 6 0 9 -3
9 -8 -1 -4 0 -9 1 -12 6 -14 4 -168 -2 -164 -10 6 -10 -10 -1 -20 12 -12 12
-210 -1 -225 -7 -10 -7 -13 0 -8 7 4 11 -15 11 -61 1 -189 6 -257 19 -270 17
-17 18 -33 2 -29 -6 1 -12 -9 -12 -23 0 -19 5 -24 25 -25 14 -1 32 -5 39 -10
9 -5 11 -4 6 3 -4 7 -2 12 3 12 7 0 11 -26 11 -65 0 -45 4 -65 13 -65 8 0 9
-3 1 -8 -6 -4 -11 -23 -12 -42 -1 -31 1 -33 12 -17 14 18 32 24 21 7 -4 -6 6
-10 24 -10 l30 0 3 -97 c3 -97 3 -98 28 -98 14 0 24 -5 23 -12 -1 -6 5 -17 14
-25 14 -11 16 -11 8 2 -16 26 -14 40 6 40 10 0 19 -5 19 -11 0 -5 -5 -7 -12
-3 -7 5 -8 3 -2 -7 5 -8 9 -22 10 -31 1 -10 2 -25 3 -34 1 -9 6 -12 14 -8 8 5
8 2 -2 -9 -11 -14 -11 -20 0 -34 10 -11 10 -14 2 -9 -7 4 -13 2 -13 -3 0 -6 6
-11 13 -11 8 0 7 -4 -3 -10 -11 -7 -5 -9 21 -6 49 6 57 -2 61 -59 l3 -50 43 2
c23 0 42 -3 42 -9 0 -5 -6 -6 -12 -2 -10 6 -10 4 0 -7 6 -7 12 -19 12 -27 0
-12 -3 -12 -17 -1 -15 11 -14 10 1 -9 11 -12 16 -22 11 -22 -4 0 -3 -6 2 -12
5 -7 9 -29 8 -49 -1 -34 1 -35 32 -34 46 1 48 8 11 48 l-34 35 28 -2 c36 -3
43 -11 44 -54 0 -26 4 -36 14 -34 10 2 11 0 2 -11 -18 -21 -12 -88 7 -86 49 4
92 -2 85 -13 -5 -8 -2 -9 10 -5 10 4 15 3 11 -3 -3 -6 1 -10 9 -10 9 0 15 5
13 12 -1 6 7 13 18 15 18 3 18 2 2 -5 -10 -4 -18 -12 -18 -17 0 -6 -11 -9 -25
-8 -15 1 -24 -3 -24 -13 0 -10 5 -12 13 -8 8 5 7 2 -2 -9 -22 -27 -4 -33 20
-6 11 13 18 20 16 14 -6 -11 12 -28 33 -33 20 -4 48 -32 33 -32 -6 0 -14 6
-17 13 -3 6 -4 3 -3 -8 2 -14 9 -19 22 -17 16 2 17 1 5 -7 -8 -5 -18 -7 -22
-5 -4 3 -8 -5 -8 -18 0 -18 2 -20 10 -8 6 10 10 11 10 2 0 -7 11 -11 28 -11
43 3 54 0 46 -13 -5 -7 -3 -8 6 -3 8 5 32 9 54 11 23 1 34 0 26 -3 -8 -3 -18
-12 -23 -19 -4 -7 -15 -10 -24 -7 -11 4 -14 2 -11 -8 3 -9 17 -13 36 -12 17 1
31 -1 31 -5 -4 -26 4 -32 47 -32 41 0 46 -2 41 -20 -3 -11 -2 -22 3 -25 4 -2
5 -16 2 -30 -4 -24 -2 -25 47 -25 28 0 54 0 58 1 9 1 24 -27 29 -55 3 -20 0
-23 -22 -20 -14 1 -23 0 -20 -4 4 -3 20 -6 36 -7 24 -1 27 1 20 15 -9 17 -4
30 12 30 4 0 7 -3 7 -8 -3 -19 2 -33 10 -28 5 4 11 2 13 -4 1 -5 40 -11 85
-12 44 -2 79 -7 76 -11 -2 -4 -14 -5 -26 -1 -19 6 -20 5 -8 -9 9 -12 18 -14
30 -8 14 8 17 5 16 -14 0 -13 -4 -27 -8 -31 -4 -5 -5 0 -1 10 6 15 4 17 -7 10
-8 -4 -20 -9 -28 -9 -27 0 -21 -21 6 -21 96 -2 179 -10 185 -19 5 -6 8 -6 8 3
0 6 7 12 15 12 8 0 15 -5 15 -11 0 -5 5 -7 10 -4 11 7 8 -30 -3 -41 -12 -13
-7 -24 11 -24 14 0 15 -2 2 -10 -12 -8 -10 -10 9 -10 16 0 21 4 18 15 -4 8 -2
17 4 20 5 4 9 3 8 -2 -5 -30 4 -32 184 -36 24 -1 36 -5 33 -13 -3 -7 3 -10 15
-7 10 3 17 9 14 12 -2 4 3 8 11 8 10 0 5 -11 -16 -30 -26 -24 -36 -28 -50 -20
-11 8 -21 8 -31 1 -12 -8 -11 -9 1 -5 9 3 24 -1 34 -9 17 -12 21 -11 33 4 13
16 14 15 8 -5 l-6 -21 572 0 c315 0 568 3 563 6 -16 12 -14 32 4 32 10 0 4 7
-16 17 -18 8 -30 18 -28 21 3 3 12 -1 21 -8 13 -11 14 -10 9 4 -3 9 -1 16 4
16 6 0 13 -8 15 -17 4 -16 5 -17 6 -1 1 11 9 17 24 16 12 0 50 0 84 1 56 1 62
3 58 21 -3 13 0 18 7 14 8 -5 9 -1 4 12 -6 15 -5 16 5 7 10 -10 9 -15 -1 -27
-10 -13 -10 -17 1 -20 22 -7 53 -4 66 6 7 5 17 7 23 3 5 -3 10 -1 10 5 0 8 -9
10 -25 6 -20 -5 -23 -3 -18 11 5 12 3 14 -7 8 -9 -5 -11 -4 -6 3 4 7 14 12 22
12 8 0 14 5 14 11 0 5 -5 7 -10 4 -6 -3 -10 0 -10 8 0 10 12 14 40 14 26 0 37
-4 33 -11 -5 -8 -3 -8 8 0 13 10 63 16 133 16 19 0 24 3 15 8 -7 5 -18 6 -24
3 -5 -3 -4 0 3 8 6 7 12 20 12 28 0 11 -4 10 -15 -5 -10 -12 -14 -14 -13 -4 6
31 39 46 111 48 39 2 74 5 77 7 4 3 6 16 5 30 -2 14 1 23 6 19 5 -3 7 -10 4
-15 -4 -5 -2 -9 3 -9 6 0 9 11 8 24 0 14 -6 22 -13 19 -7 -3 -13 -1 -13 4 0 4
13 9 30 9 16 1 30 -2 30 -6 0 -4 7 -11 16 -14 13 -5 14 -4 6 7 -13 15 -5 17
61 17 l37 -1 0 51 0 50 63 1 c34 0 56 3 50 6 -23 9 -14 20 16 20 17 0 29 -5
28 -10 -1 -5 5 -11 13 -12 11 -2 15 7 15 35 1 35 -1 37 -18 28 -10 -5 -21 -7
-25 -4 -3 3 0 6 7 6 7 0 10 4 7 8 -6 10 2 12 69 15 l50 2 -1 42 c0 41 1 43 28
43 17 0 27 4 23 10 -3 5 -2 10 4 10 5 0 11 -5 13 -12 6 -16 38 -2 38 17 0 8
-4 15 -10 15 -5 0 -10 5 -10 11 0 5 4 8 9 4 5 -3 11 5 13 17 2 18 9 22 28 21
24 -3 24 -2 6 12 -11 8 -15 15 -9 15 7 0 18 -6 25 -12 25 -24 35 -17 36 23 1
22 -3 39 -9 39 -6 0 -4 6 4 14 9 9 29 13 55 11 23 -2 42 1 42 6 0 6 -4 7 -10
4 -9 -6 -14 8 -11 27 2 13 -10 9 -27 -10 -10 -10 -13 -12 -9 -5 9 13 1 33 -13
33 -5 0 -7 -6 -4 -14 3 -8 2 -16 -3 -19 -4 -3 -8 11 -9 31 -1 21 1 31 3 25 3
-7 9 -13 14 -13 6 0 8 4 5 8 -3 5 1 9 9 9 8 0 13 -5 12 -10 -1 -5 4 -12 11
-14 8 -3 10 2 6 14 -5 14 -4 15 4 4 6 -8 9 -23 7 -33 -2 -10 0 -18 4 -18 8 0
10 18 11 108 1 39 3 43 23 42 65 -6 67 -4 67 55 0 53 1 54 23 46 13 -5 30 -6
37 -1 7 4 19 6 27 3 8 -3 13 3 13 17 0 20 -2 21 -17 9 -17 -13 -17 -12 -3 6 9
12 17 45 19 80 1 33 4 61 5 62 1 1 21 3 44 4 l42 3 1 60 c2 128 8 147 37 124
13 -11 15 -10 9 4 -6 17 7 33 28 33 6 0 11 35 13 78 l4 77 -44 1 c-24 1 -60 1
-81 1 -27 -1 -36 2 -31 11 5 9 3 8 -7 -1 -7 -6 -37 -12 -67 -12 -52 0 -53 -1
-52 -28 5 -70 4 -72 -46 -72 -38 0 -45 -3 -42 -18 2 -10 11 -16 23 -14 16 2
17 1 5 -7 -8 -5 -18 -7 -22 -5 -4 3 -8 -27 -8 -67 0 -66 -1 -71 -20 -66 -11 3
-20 2 -20 -3 0 -4 -11 -5 -24 -3 -21 4 -24 1 -23 -24 0 -48 -7 -102 -13 -98
-3 2 -14 -3 -25 -12 -20 -14 -19 -15 4 -11 17 2 25 -2 27 -14 1 -10 -3 -21 -8
-25 -6 -3 -8 -1 -5 4 4 6 0 14 -9 17 -8 3 -12 2 -9 -3 3 -5 0 -13 -6 -17 -7
-4 -9 -3 -6 2 3 6 2 16 -3 24 -10 16 6 53 20 45 5 -3 11 -1 14 3 3 5 -11 8
-31 7 -33 -1 -37 -4 -38 -28 -1 -14 1 -24 6 -22 4 3 9 -2 13 -10 3 -8 0 -17
-6 -21 -7 -4 -8 -3 -4 4 4 7 2 12 -3 12 -10 0 -14 -24 -13 -75 0 -27 -14 -34
-60 -30 -29 3 -38 0 -38 -12 0 -10 -6 -13 -17 -9 -16 5 -16 5 -2 -6 8 -7 15
-28 15 -45 0 -32 0 -33 -45 -33 l-46 0 4 -46 c3 -43 2 -46 -20 -44 -69 6 -74
3 -74 -42 l1 -43 -60 -2 c-43 -1 -62 -6 -68 -17 -10 -18 -28 -21 -28 -5 0 5 5
7 10 4 6 -3 10 -2 10 3 0 5 -10 9 -23 9 -19 0 -22 -5 -23 -43 -1 -24 2 -44 8
-44 5 0 6 4 3 10 -3 5 -1 10 4 10 13 0 15 -17 3 -24 -5 -3 -32 -6 -60 -7 -45
-2 -52 -5 -53 -23 -3 -62 -2 -60 -49 -62 -25 -1 -60 -2 -78 -3 -24 -1 -31 -5
-26 -13 6 -9 3 -9 -9 0 -20 17 -41 7 -29 -15 5 -8 7 -26 4 -39 -4 -22 -9 -24
-61 -25 -185 -3 -216 -5 -214 -17 2 -7 -1 -12 -5 -12 -5 0 -8 -10 -7 -22 2
-28 20 -26 21 2 2 32 3 33 19 20 8 -7 12 -17 8 -23 -4 -6 -1 -7 7 -2 9 6 11 4
5 -5 -6 -9 -4 -11 5 -5 9 5 11 4 6 -3 -5 -8 -2 -10 8 -6 9 3 16 2 16 -3 0 -5
-17 -9 -37 -10 -21 0 -82 -1 -136 -2 -75 -1 -97 -4 -91 -14 6 -9 4 -9 -7 1 -7
6 -20 12 -28 12 -12 0 -10 -5 6 -18 23 -18 25 -59 3 -54 -7 2 -10 -3 -7 -10 3
-8 -2 -14 -14 -14 -13 0 -15 3 -7 13 7 9 7 13 -1 13 -6 0 -14 -7 -17 -15 -6
-14 -8 -13 -21 2 -13 16 -14 16 -9 1 5 -16 -22 -17 -404 -17 -351 0 -409 3
-414 15 -3 8 -2 12 3 9 5 -3 12 -1 16 5 3 5 11 10 17 10 7 0 7 -4 -1 -13 -8
-10 -7 -14 4 -14 8 0 12 5 8 10 -3 5 3 4 14 -1 16 -9 18 -7 17 11 -1 33 -14
67 -25 67 -5 0 -8 -5 -6 -11 1 -6 -4 -14 -11 -16 -7 -3 -11 1 -10 8 2 10 -14
14 -62 15 -209 4 -221 6 -208 23 10 12 8 12 -8 -2 -23 -19 -50 -22 -59 -7 -3
6 -11 10 -16 10 -6 0 -7 -5 -3 -12 4 -7 3 -8 -5 -4 -6 4 -8 12 -5 18 4 6 1 8
-7 6 -8 -3 -13 -10 -12 -16 1 -5 -5 -9 -15 -8 -9 2 -15 7 -14 12 2 5 9 8 14 6
6 -2 8 4 5 13 -9 21 2 45 18 39 7 -3 16 -1 19 4 3 6 -25 9 -71 8 -52 -1 -81 3
-90 12 -7 8 -13 9 -13 3 0 -6 -15 -10 -32 -8 -33 3 -35 5 -37 59 -1 25 -4 27
-53 30 -51 3 -53 4 -51 31 1 15 -2 27 -6 27 -5 0 -8 -8 -8 -17 0 -36 -3 -43
-20 -40 -10 1 -23 6 -30 10 -6 4 -13 1 -16 -5 -3 -7 -4 3 -2 22 1 20 7 34 14
33 6 -2 11 2 11 8 0 8 5 7 16 -1 12 -11 18 -11 30 1 12 13 9 15 -23 15 -21 1
-62 2 -90 2 l-53 2 0 50 0 49 -34 -3 c-59 -4 -74 7 -71 52 2 34 0 39 -19 38
-28 -1 -35 -12 -32 -51 3 -32 -12 -41 -31 -20 -4 4 -2 5 5 1 15 -9 15 -1 1 26
-8 15 -8 19 0 14 14 -9 14 7 0 21 -15 15 -19 91 -5 102 6 4 19 7 28 6 9 -2 25
6 35 18 10 11 12 17 4 12 -10 -5 -12 -4 -7 3 4 7 12 12 17 12 12 0 8 -32 -6
-42 -10 -8 35 -12 88 -8 28 2 30 -2 27 -57 -2 -33 -1 -33 47 -34 26 -1 52 -1
56 0 5 1 5 -4 0 -11 -4 -7 -8 -27 -8 -43 -1 -29 1 -30 45 -31 25 -1 86 -3 135
-5 l91 -4 0 -42 c0 -23 -4 -39 -8 -37 -5 3 -5 10 -2 16 5 7 2 8 -6 3 -9 -6
-11 -4 -5 5 5 9 4 11 -4 6 -7 -5 -10 -2 -9 6 2 7 -3 12 -10 10 -8 -1 -11 3 -7
10 4 7 0 5 -8 -4 -8 -10 -16 -16 -18 -13 -3 2 -5 -8 -4 -23 0 -29 -13 -27 182
-34 50 -2 89 -6 87 -10 -3 -4 -18 -6 -34 -4 -16 2 -28 0 -25 -4 6 -10 64 -10
70 1 4 5 12 9 18 9 7 0 -1 -9 -17 -19 -25 -17 -26 -20 -10 -24 18 -4 18 -5 1
-6 -31 -2 -13 -25 22 -28 18 -2 30 1 27 6 -3 5 1 12 10 15 21 8 24 8 24 -5 0
-5 -4 -7 -10 -4 -5 3 -10 1 -10 -4 0 -10 61 -14 178 -13 32 0 43 -12 19 -21
-8 -4 -9 -6 0 -6 7 -1 10 -11 7 -25 -2 -14 1 -26 9 -29 7 -3 223 -5 480 -5
378 1 465 3 457 13 -8 9 -8 15 0 20 8 5 7 11 -2 22 -15 19 -15 23 4 34 10 7
10 9 -2 9 -13 0 -13 1 0 11 12 8 9 9 -10 4 -23 -6 -24 -5 -6 9 19 15 13 40 -7
33 -7 -2 -17 3 -23 11 -13 18 -38 6 -30 -15 4 -11 2 -13 -9 -9 -22 8 -45 -3
-38 -20 3 -7 -2 -17 -11 -20 -9 -3 -16 -13 -16 -22 0 -29 -13 -2 -17 35 -2 21
-4 44 -5 51 -1 8 -7 7 -21 -5 -19 -17 -20 -17 -14 0 6 15 4 16 -13 7 -25 -13
-33 -13 -24 3 6 9 5 9 -8 0 -8 -7 -18 -10 -22 -6 -3 4 -109 8 -234 10 -125 2
-252 5 -282 6 l-55 2 3 47 4 47 -49 -1 c-26 0 -42 -3 -35 -5 6 -3 12 -9 12
-15 0 -6 -8 -4 -18 5 -13 12 -41 18 -103 20 -78 2 -84 4 -84 24 0 12 -3 24 -7
28 -4 4 -4 13 -1 21 4 11 -6 14 -46 14 -34 0 -51 4 -52 13 -1 6 -2 26 -3 42
-1 33 10 30 -125 34 -51 1 -53 2 -49 26 3 13 0 26 -6 29 -8 3 -7 5 1 5 6 1 9
10 6 21 -3 11 -10 20 -17 19 -37 -4 -86 2 -81 11 7 11 -8 14 -19 3 -13 -13
-44 -10 -39 4 4 10 9 11 19 2 10 -8 13 -6 11 10 -1 13 -6 20 -14 17 -7 -3 -13
-1 -13 5 0 6 8 9 18 7 9 -2 16 -10 15 -16 -2 -7 4 -12 12 -12 20 0 15 22 -10
38 -19 12 -19 13 2 7 13 -4 23 -2 23 3 0 12 -32 12 -47 -1 -8 -6 -13 -6 -13 0
0 10 -6 11 -55 14 -28 2 -30 7 -14 29 9 13 10 12 5 -2 -3 -11 -1 -15 8 -12 7
3 13 11 13 19 0 8 -4 12 -8 9 -4 -2 -7 5 -6 16 1 11 6 20 11 20 5 0 6 3 3 7
-4 3 -17 -2 -29 -13 -17 -15 -20 -16 -16 -3 5 12 0 16 -20 15 -21 -1 -26 3
-24 17 2 9 -4 20 -12 23 -9 3 -13 11 -9 17 3 6 1 7 -5 3 -7 -4 -12 -3 -12 3 0
19 19 21 30 4 6 -10 10 -12 8 -4 -2 8 -14 21 -26 29 -21 14 -22 13 -15 -4 6
-17 5 -18 -11 -4 -10 8 -25 15 -34 16 -8 2 -19 10 -24 19 -5 8 -13 13 -19 10
-5 -4 -9 1 -9 9 0 9 -4 16 -10 16 -5 0 -6 -7 -3 -17 5 -12 3 -14 -7 -8 -8 5
-11 4 -6 -3 3 -6 15 -9 26 -7 11 2 20 -1 20 -6 0 -5 -15 -9 -33 -7 -28 1 -33
6 -34 30 0 15 2 26 6 24 4 -3 8 5 8 17 2 17 0 19 -7 7 -10 -16 -13 -10 -13 32
0 10 -4 15 -8 12 -5 -3 -9 -1 -9 5 0 5 5 13 11 16 17 11 5 28 -22 30 -31 3
-56 -9 -40 -19 6 -4 11 -2 11 3 0 6 5 11 11 11 5 0 8 -4 4 -9 -3 -5 -1 -12 4
-16 6 -3 7 -13 4 -22 -4 -10 -2 -14 5 -9 6 3 13 2 16 -3 4 -5 2 -12 -3 -15 -5
-4 -12 -2 -16 4 -3 5 -11 10 -16 10 -6 0 -8 -4 -5 -9 4 -5 -2 -8 -11 -7 -14 2
-18 12 -18 42 0 21 -3 44 -7 49 -3 6 -4 28 -3 51 4 40 3 41 -29 39 -17 0 -37
-5 -44 -9 -7 -4 -12 -4 -11 1 1 4 1 29 0 56 l-1 47 -50 0 -50 0 0 49 c0 28 -5
53 -10 56 -8 5 -7 11 1 21 6 8 7 14 3 14 -5 0 -15 -9 -22 -21 -8 -12 -9 -18
-3 -15 5 4 12 2 16 -3 3 -6 -10 -9 -32 -7 -37 2 -38 3 -39 41 -1 22 -3 64 -5
92 l-4 53 -42 0 -43 0 0 45 c0 48 2 47 -70 47 -19 0 -29 2 -22 5 6 3 12 9 12
14 0 6 -4 8 -8 5 -10 -6 -16 160 -6 175 4 6 11 6 20 -2 8 -7 14 -7 14 -1 0 16
-26 22 -39 9 -7 -7 -29 -13 -50 -14 l-37 -1 -3 89 c-1 67 2 89 11 90 7 1 20 2
28 3 8 1 22 -3 30 -9 13 -8 13 -7 3 6 -7 9 -10 19 -6 22 3 4 2 7 -4 7 -5 0
-13 -3 -17 -7 -12 -12 -37 -12 -29 0 12 18 10 31 -6 43 -12 9 -12 12 0 20 21
13 39 14 39 2 0 -7 5 -6 14 1 11 9 16 9 22 0 4 -8 3 -9 -4 -5 -13 8 -17 -6 -5
-18 12 -12 13 -46 2 -46 -8 0 -8 -4 0 -14 7 -8 11 -34 9 -58 -2 -34 -7 -42
-20 -40 -9 1 -19 -2 -23 -8 -4 -6 1 -7 12 -3 10 3 15 3 11 -2 -4 -4 -3 -16 3
-26 7 -13 6 -19 -1 -19 -6 0 -13 6 -16 14 -3 8 -13 17 -22 21 -12 4 -10 -1 6
-18 18 -19 20 -26 10 -30 -7 -3 -8 -6 -2 -6 5 -1 19 5 29 13 16 11 17 17 7 29
-8 9 -9 18 -3 21 5 4 13 -3 16 -15 4 -11 9 -18 12 -16 2 3 0 14 -6 25 -9 18
-7 20 17 20 15 0 36 -2 47 -4 27 -4 30 -41 4 -49 -19 -6 -19 -7 2 -24 17 -13
21 -28 21 -64 -1 -35 2 -47 13 -47 8 0 15 6 15 13 0 9 2 9 9 -1 4 -7 12 -12
17 -11 28 5 34 -4 34 -46 0 -48 4 -51 68 -45 20 1 22 -3 22 -57 0 -32 4 -53 8
-48 10 14 54 15 49 1 -2 -6 -10 -11 -18 -12 -44 -3 -45 -4 -29 -14 12 -8 13
-12 2 -19 -21 -13 15 -23 39 -11 24 14 26 -5 2 -19 -15 -9 -14 -10 7 -7 14 2
24 8 23 12 -1 5 -3 16 -6 24 -2 8 -2 12 0 7 3 -4 8 -5 12 -3 4 3 7 -3 8 -12 1
-9 3 -33 5 -52 2 -19 7 -40 11 -47 4 -6 1 -13 -5 -16 -7 -3 4 -4 25 -2 41 2
54 9 38 20 -6 3 -11 1 -11 -4 0 -6 -5 -11 -11 -11 -8 0 -7 6 2 17 12 15 12 16
-1 8 -13 -8 -13 -7 0 11 14 18 14 18 -4 4 -18 -13 -19 -13 -12 0 4 8 0 6 -8
-4 -9 -11 -16 -15 -16 -10 0 6 6 16 13 23 6 8 7 11 1 8 -6 -3 -11 0 -11 7 0
15 14 15 35 3 7 -5 12 -3 12 3 0 7 6 10 12 8 8 -3 13 -22 13 -49 0 -39 3 -44
22 -43 18 1 20 -2 13 -15 -5 -10 -5 -23 0 -31 4 -7 6 -18 4 -24 -3 -7 9 -12
31 -13 39 -1 55 -10 40 -21 -13 -9 -18 -35 -5 -27 5 3 10 1 10 -4 0 -6 -6 -11
-12 -11 -10 0 -9 -3 1 -9 11 -7 11 -9 0 -13 -13 -5 37 -8 137 -8 l41 -1 0 -39
c0 -33 -3 -38 -14 -29 -7 7 -16 9 -20 5 -3 -3 -1 -6 6 -6 7 0 9 -5 5 -12 -4
-7 -4 -10 1 -6 4 4 14 3 22 -3 7 -6 31 -11 53 -11 l41 1 -3 -39 c-1 -22 0 -42
3 -44 3 -3 36 -6 74 -7 39 -1 64 -4 57 -6 -6 -3 -9 -9 -6 -14 3 -6 11 -5 20 2
8 6 14 8 14 3 0 -5 4 -3 9 4 7 11 9 10 14 -3 4 -9 3 -13 -3 -10 -12 8 -13 -1
-1 -24 7 -13 5 -17 -7 -17 -9 -1 -24 -3 -32 -6 -8 -3 -12 -3 -7 -1 4 3 5 9 2
14 -4 5 0 6 7 4 9 -4 14 3 15 16 2 16 -1 19 -9 11 -9 -9 -16 -8 -27 3 -15 12
-16 10 -17 -21 0 -19 4 -35 10 -36 21 -3 62 -5 115 -6 51 -2 53 -3 49 -27 -3
-14 -2 -25 2 -25 4 0 5 -11 3 -23 -5 -26 -9 -25 139 -28 l57 -1 -22 -21 c-13
-12 -15 -16 -5 -8 19 15 21 12 18 -30 -1 -26 -1 -26 82 -29 149 -3 163 -5 169
-13 10 -13 -2 -48 -15 -46 -23 3 -36 -1 -36 -12 0 -8 6 -7 17 2 15 12 16 12
10 -4 -6 -17 -6 -17 17 0 16 13 22 25 20 46 -2 16 0 25 6 22 5 -3 8 -19 6 -35
-4 -38 14 -53 59 -47 19 3 35 2 35 -2 0 -3 51 -6 114 -6 67 0 112 -4 108 -9
-3 -5 2 -7 11 -3 10 3 24 4 32 1 14 -6 13 -8 -2 -19 -17 -13 -17 -14 -1 -20
10 -4 14 -13 11 -23 -6 -13 -7 -13 -13 3 -7 20 -59 29 -71 12 -3 -4 -11 -1
-18 7 -8 10 -9 16 -1 21 5 3 10 1 10 -6 0 -9 3 -9 14 0 10 8 16 9 21 1 3 -5
12 -10 18 -10 7 1 1 10 -12 21 -17 14 -26 16 -31 9 -4 -7 -10 -11 -14 -10 -23
6 -29 -9 -12 -29 11 -12 14 -21 7 -21 -6 0 -14 6 -17 14 -3 8 -11 13 -18 10
-7 -3 -19 2 -26 11 -15 18 0 21 18 3 7 -7 12 -8 12 -2 0 6 -11 16 -24 22 -19
9 -24 8 -22 -3 1 -8 5 -18 9 -21 10 -10 9 -26 -1 -20 -5 3 -9 -1 -9 -8 0 -11
4 -12 17 -3 20 12 54 2 45 -13 -8 -13 18 -8 27 5 11 15 67 15 62 0 -4 -8 6
-12 28 -11 18 1 33 7 33 13 0 6 3 15 7 19 4 3 6 -3 3 -15 -4 -23 -40 -21 371
-22 110 0 112 -1 112 -24 0 -13 -6 -22 -14 -21 -18 3 -31 16 -16 16 7 0 12 4
12 9 0 13 -38 5 -58 -11 -13 -11 -15 -10 -9 5 3 9 2 17 -3 17 -11 0 -13 -23
-3 -33 3 -4 13 -1 21 5 12 10 18 8 34 -11 11 -15 15 -27 9 -30 -5 -4 35 -6 90
-6 75 0 98 3 95 12 -3 7 -1 15 4 18 9 5 14 -6 12 -25 0 -4 10 -6 23 -6 13 0
21 4 19 8 -3 4 -1 8 4 8 10 0 8 82 -2 98 -3 6 -2 13 2 16 13 8 28 -34 27 -75
-1 -32 1 -36 21 -36 13 0 25 6 28 13 3 8 11 14 17 14 8 0 8 -4 1 -13 -8 -9 -8
-17 0 -27 8 -12 9 -12 4 2 -3 10 -1 20 5 24 7 4 6 10 -1 19 -8 9 -8 15 0 20 5
3 10 1 10 -6 0 -7 3 -10 6 -6 3 3 3 10 0 16 -8 13 -36 3 -36 -13 0 -18 -21
-35 -36 -29 -8 3 -14 9 -14 14 0 4 7 6 15 3 9 -4 17 1 21 12 4 11 16 27 28 37
l21 18 -22 -11 c-13 -6 -23 -7 -23 -1 0 5 7 12 16 15 9 4 14 9 11 13 -4 3 -13
0 -22 -7 -9 -8 -15 -8 -15 -2 0 6 4 13 10 17 5 3 6 13 3 23 -6 15 -3 14 16 -2
18 -17 21 -17 15 -3 -3 9 -9 17 -13 18 -3 0 -13 2 -21 4 -13 2 -15 -6 -13 -39
5 -63 4 -78 -1 -83 -7 -7 -26 6 -26 18 0 6 5 7 10 4 6 -3 10 -1 10 4 0 6 -5
11 -11 11 -5 0 -7 5 -4 10 3 6 1 10 -4 10 -6 0 -11 5 -11 11 0 5 5 7 10 4 6
-3 10 -1 10 5 0 7 -7 10 -15 6 -10 -4 -14 1 -12 16 2 21 -2 22 -91 23 -78 2
-90 0 -80 -12 6 -8 14 -10 17 -5 8 11 51 11 45 0 -3 -5 -2 -7 3 -6 4 2 18 -7
31 -20 19 -19 17 -27 -10 -24 -3 1 -9 -5 -12 -13 -3 -9 0 -12 10 -8 8 3 14 2
13 -3 -4 -22 2 -35 12 -28 8 4 7 9 -2 15 -10 6 -10 9 -2 9 31 0 24 -45 -7 -47
-11 -1 -19 1 -19 5 3 18 -2 32 -10 32 -6 0 -8 -9 -6 -20 2 -11 0 -20 -4 -20
-19 0 -19 15 0 51 11 22 15 39 10 39 -12 0 -33 -35 -26 -42 3 -2 -11 -4 -30
-3 -21 1 -32 -2 -28 -8 4 -6 1 -7 -7 -2 -9 5 -11 4 -6 -4 6 -9 11 -9 22 0 15
12 19 1 6 -16 -11 -15 -39 -17 -39 -3 0 7 -4 22 -8 33 -5 16 -5 17 4 5 8 -12
12 -10 19 10 6 17 6 27 -2 32 -8 5 -7 8 2 8 8 0 10 5 6 12 -5 9 -2 9 9 -1 23
-18 22 1 -2 20 -13 12 -43 17 -107 18 -49 2 -96 3 -104 3 -8 0 -24 8 -35 17
-18 15 -19 15 -6 -1 12 -16 10 -18 -26 -15 -24 1 -40 7 -40 15 0 16 14 16 21
0 3 -7 5 -4 3 6 -1 12 -11 20 -25 21 -16 1 -21 -3 -17 -13 8 -22 -4 -33 -25
-22 -12 6 -17 16 -13 26 5 14 8 12 19 -7 16 -29 18 -20 4 16 -6 17 -14 24 -22
19 -7 -4 -9 -3 -5 1 11 13 38 15 31 3 -4 -6 -1 -9 6 -6 21 7 23 25 3 25 -10 0
-68 1 -128 2 l-111 1 1 26 c2 25 22 47 36 38 4 -2 10 0 14 5 6 11 -28 7 -47
-5 -7 -5 -9 -2 -6 7 4 11 -11 15 -76 17 -184 7 -189 8 -191 23 -1 8 7 22 17
32 10 10 18 12 18 5 0 -6 3 -8 6 -5 4 4 1 15 -7 24 -13 17 -13 17 5 3 16 -12
18 -12 11 -1 -5 9 -4 12 2 8 6 -4 9 -18 8 -32 -2 -14 1 -25 6 -25 6 0 7 -6 3
-12 -4 -7 -3 -9 2 -5 4 4 9 25 9 45 1 35 -1 37 -32 38 -31 1 -37 -5 -34 -33 1
-7 -2 -13 -7 -13 -5 0 -9 10 -8 22 1 20 -4 23 -46 26 -51 3 -53 7 -49 67 2 17
0 27 -4 23 -6 -6 -12 -28 -14 -53 -1 -5 -6 -3 -12 5 -9 13 -10 13 -6 0 2 -8
10 -14 16 -13 6 2 11 -2 11 -7 0 -11 -1 -11 -50 -14 -35 -2 -36 -2 -35 36 0
31 2 36 11 23 9 -12 13 -13 16 -4 3 10 6 10 12 1 4 -7 2 -12 -4 -12 -6 0 -8
-5 -5 -11 5 -7 12 -4 20 8 27 38 26 39 -95 42 l-50 1 0 45 0 45 -47 1 c-27 1
-68 2 -93 2 -41 1 -45 3 -46 27 -1 14 1 19 3 12 3 -6 9 -10 13 -7 5 3 7 12 4
20 -4 8 -10 13 -15 10 -4 -3 -6 4 -4 15 2 11 -1 20 -6 20 -6 0 -7 5 -3 12 5 7
3 8 -7 2 -8 -4 -22 -10 -33 -11 -16 -3 -17 -1 -6 12 9 11 15 13 20 5 10 -16
21 15 13 37 -4 11 -3 14 5 9 8 -5 10 -2 5 9 -4 12 -8 13 -13 5 -4 -7 -10 -8
-12 -4 -3 5 -3 3 -2 -3 5 -19 -13 -16 -24 3 -8 14 -10 14 -14 -4 -4 -13 -2
-19 6 -16 7 3 12 -4 12 -16 0 -11 -3 -20 -6 -20 -13 1 -26 16 -27 33 0 9 -1
23 -2 30 -1 8 -15 11 -46 9 l-45 -4 0 45 0 46 -42 3 c-43 3 -43 3 -46 46 l-3
42 -50 0 -51 0 2 33 c4 66 3 67 -45 67 -25 0 -44 3 -44 8 5 31 -4 81 -17 98
-13 16 -15 16 -10 2 6 -21 2 -22 -26 -7 -16 8 -19 8 -13 -1 5 -8 3 -11 -6 -8
-13 4 -16 20 -22 114 -2 34 -5 41 -20 38 -11 -2 -17 2 -14 9 2 7 11 11 21 9 9
-2 16 1 16 5 0 5 -20 9 -44 9 -25 0 -42 -4 -40 -8 3 -4 0 -8 -5 -8 -10 0 -16
49 -12 92 2 12 -5 17 -21 16 -65 -3 -68 -1 -68 47 l0 45 -45 0 c-34 0 -45 4
-45 16 0 9 5 12 13 8 9 -6 9 -5 -1 8 -7 8 -13 43 -14 76 -1 51 -5 62 -23 72
-12 6 -25 10 -31 9 -36 -7 -44 2 -44 46 0 47 -1 48 -57 45 l-32 -1 0 95 -1 96
45 0 45 0 0 -45 0 -45 50 0 50 0 1 -62 c3 -132 0 -122 40 -123 28 -1 36 2 32
13 -5 11 -7 11 -15 0 -8 -10 -9 -10 -5 2 2 8 10 14 16 12 6 -1 11 2 11 8 0 5
-4 10 -8 10 -4 0 -8 9 -9 21 -1 11 3 19 10 16 10 -3 14 -29 17 -134 1 -38 4
-43 25 -43 13 0 26 6 28 13 4 10 6 10 6 0 1 -7 8 -13 16 -13 11 0 15 -12 15
-49 l0 -50 52 -3 53 -3 -3 -43 -4 -42 46 0 46 0 0 -45 0 -45 45 0 45 0 0 -50
0 -50 50 0 50 0 0 -45 0 -45 45 0 c42 0 45 -2 47 -27 0 -16 1 -35 0 -43 -1
-11 9 -15 34 -16 20 0 33 4 31 10 -2 6 -11 10 -20 8 -26 -4 -28 14 -3 43 18
21 25 24 32 14 12 -20 14 -40 3 -33 -5 3 -7 9 -4 14 13 21 -12 15 -29 -7 -18
-25 -18 -25 2 -19 15 5 22 2 27 -14 6 -19 16 -23 58 -23 9 0 17 -4 17 -10 0
-5 5 -5 13 2 11 9 14 3 13 -28 -1 -22 -5 -43 -10 -48 -5 -5 -6 -2 -1 6 5 8 4
12 -1 9 -5 -3 -18 6 -29 21 l-20 26 26 -16 c24 -16 25 -16 27 4 1 17 -1 19 -8
7 -7 -11 -10 -11 -10 -2 0 7 -4 10 -10 7 -5 -3 -10 -2 -10 2 0 5 -10 9 -22 10
-13 0 -17 -1 -10 -4 6 -3 12 -9 12 -14 0 -6 -4 -8 -9 -5 -5 3 -7 -8 -6 -25 3
-31 15 -54 15 -28 0 11 2 11 10 -1 6 -10 10 -11 10 -2 0 6 5 12 11 12 5 0 8
-4 5 -9 -4 -5 2 -8 11 -6 10 1 22 0 28 -3 5 -3 27 -5 49 -3 44 3 59 -11 46
-45 -11 -29 4 -42 50 -42 19 0 37 -1 40 -2 3 -1 20 -3 37 -4 18 -1 38 -8 45
-16 11 -12 10 -12 -4 -1 -15 11 -17 10 -15 -8 1 -12 7 -19 13 -17 13 5 13 -19
-1 -31 -4 -4 -5 -2 -1 4 5 9 2 11 -10 6 -12 -4 -15 -3 -10 5 4 7 2 12 -4 12
-7 0 -10 -7 -6 -17 4 -11 -2 -8 -13 7 -11 14 -23 21 -27 17 -4 -4 -2 -7 4 -7
7 0 12 -5 12 -11 0 -5 -4 -8 -8 -5 -5 3 -9 0 -9 -7 0 -8 29 -13 95 -15 104 -3
119 -7 102 -27 -6 -8 -10 -24 -8 -37 3 -24 21 -28 136 -28 25 0 41 -4 37 -9
-3 -5 -1 -12 5 -16 5 -3 10 -1 10 4 0 6 5 11 12 11 6 0 3 -9 -7 -20 -21 -23
-9 -27 15 -5 15 14 19 14 29 1 13 -16 6 -40 -9 -31 -6 4 -20 -16 -20 -29 0 -1
48 -4 108 -5 59 -2 117 -4 128 -4 18 -1 21 -5 14 -23 -7 -16 -5 -24 6 -28 24
-9 27 -7 14 9 -9 10 -9 15 -1 15 6 0 11 -4 11 -8 0 -5 10 -14 23 -19 19 -10
17 -11 -16 -8 -34 2 -67 -13 -35 -16 26 -3 94 -7 147 -8 46 -1 52 -3 47 -18
-6 -17 -5 -17 8 0 10 13 25 16 67 14 30 -2 59 -6 65 -10 6 -3 14 -3 18 0 4 4
14 8 23 9 12 2 13 0 4 -9 -15 -15 -14 -30 1 -21 10 6 10 5 1 -7 -6 -8 -12 -18
-13 -24 -1 -5 -4 -12 -7 -15 -4 -3 -3 0 1 7 3 6 1 15 -5 19 -8 5 -9 3 -4 -6 6
-9 4 -11 -5 -5 -8 5 -11 4 -7 -2 3 -5 0 -10 -8 -10 -11 0 -12 4 -3 14 6 7 9
16 6 18 -3 3 -11 -2 -18 -10 -12 -14 -16 -14 -34 7 -12 13 -18 19 -14 13 4 -7
5 -15 1 -18 -3 -4 -1 -7 5 -7 7 0 11 -5 9 -12 -3 -15 112 -18 132 -4 11 8 13
8 8 -1 -5 -8 79 -11 334 -12 207 -1 338 3 334 8 -3 5 -1 13 5 16 6 4 9 1 8 -7
-2 -10 20 -13 99 -13 l103 0 0 38 c0 28 7 44 26 62 15 14 22 25 16 25 -6 0
-15 -8 -21 -17 -8 -16 -11 -15 -21 11 -6 16 -13 26 -16 23 -3 -3 -1 -15 6 -26
8 -15 8 -27 0 -41 -6 -11 -8 -24 -5 -29 6 -11 -4 -41 -14 -41 -12 0 -8 60 3
60 6 1 1 6 -12 14 -21 11 -22 14 -8 25 9 8 16 17 16 22 0 5 -13 -5 -30 -23
-31 -32 -38 -44 -18 -32 7 5 8 3 3 -5 -6 -10 -3 -11 12 -3 15 8 20 8 20 -2 0
-8 -12 -13 -33 -12 -27 1 -31 4 -23 18 5 10 7 18 3 18 -3 0 0 8 7 18 12 15 12
16 -2 5 -9 -7 -18 -10 -22 -7 -3 3 -3 -5 0 -18 3 -15 2 -19 -4 -11 -6 9 -54
13 -166 14 -86 1 -157 6 -157 11 0 5 -6 6 -12 1 -19 -12 -107 -11 -105 2 1 5
-4 9 -10 8 -19 -4 -16 3 11 30 23 23 24 23 35 4 12 -18 13 -18 28 0 11 14 13
14 10 2 -6 -20 9 -46 20 -35 4 5 2 11 -5 13 -6 3 -9 9 -6 14 3 6 11 5 20 -2
20 -16 18 -1 -2 19 -12 11 -36 17 -75 18 -50 1 -57 -1 -54 -18 2 -10 -1 -18
-6 -18 -5 0 -9 8 -7 17 3 16 -10 18 -137 21 -231 4 -228 3 -231 32 l-4 25 21
-24 20 -24 -5 27 c-7 37 -12 42 -30 27 -12 -10 -15 -9 -13 8 1 14 6 19 17 16
8 -2 21 -1 28 3 7 5 -11 8 -40 9 -29 0 -94 1 -144 3 l-90 4 -3 30 c-2 17 -3
37 -4 43 0 8 -14 12 -39 11 -31 -1 -38 -5 -33 -17 3 -11 0 -10 -10 3 -11 15
-26 19 -63 17 -48 -1 -49 -1 -44 25 4 21 2 25 -9 19 -12 -8 -12 -6 -1 8 16 19
8 37 -16 37 -11 0 -18 -8 -19 -22 -2 -22 -1 -22 13 -4 8 11 14 15 14 9 0 -13
-29 -38 -32 -27 0 5 -1 16 -2 24 -1 9 -13 16 -31 18 -16 2 -36 9 -44 15 -12 9
-13 9 -7 0 5 -9 -1 -13 -23 -13 -24 0 -29 4 -26 20 2 11 0 22 -5 25 -4 3 -6
14 -3 25 5 18 0 20 -47 20 -40 0 -51 3 -47 14 4 10 -1 12 -16 9 -16 -3 -18 -2
-8 5 10 7 10 11 1 17 -9 6 -7 11 8 19 17 9 18 13 6 24 -11 10 -14 10 -14 0 0
-9 -3 -9 -8 -2 -4 6 -13 4 -24 -8 -10 -10 -14 -18 -10 -18 4 0 13 5 20 12 9 9
11 5 8 -20 -2 -22 2 -35 13 -42 13 -7 12 -9 -6 -7 -13 1 -23 5 -23 10 0 5 -7
4 -15 -3 -11 -9 -15 -9 -15 -1 0 6 7 14 15 17 8 4 15 10 15 15 0 4 -6 6 -14 3
-8 -3 -13 2 -13 13 0 41 -3 43 -52 43 -47 0 -68 9 -54 24 10 10 11 46 1 46 -5
0 -6 5 -3 10 5 8 -67 16 -98 11 -5 -1 -5 4 0 11 14 23 12 78 -4 78 -8 0 -11
-4 -8 -10 3 -5 2 -10 -4 -10 -5 0 -11 4 -13 10 -1 5 -20 10 -40 12 -21 1 -38
6 -38 11 0 4 -4 5 -10 2 -21 -13 -49 -13 -54 0 -3 10 0 12 12 8 14 -5 14 -3
-3 18 -14 16 -15 20 -3 11 15 -12 17 -11 15 7 -1 14 -6 20 -16 16 -12 -5 -12
-3 0 12 9 11 10 14 2 9 -8 -4 -13 -2 -13 4 0 6 -4 8 -10 5 -11 -7 -14 8 -3 19
15 14 11 35 -5 29 -15 -6 -15 -4 1 14 14 16 14 20 3 20 -8 0 -14 -5 -13 -10 1
-5 -4 -12 -11 -14 -7 -3 -11 1 -10 9 2 7 -4 13 -12 13 -28 1 -39 15 -35 48 2
17 1 26 -2 19 -4 -10 -9 -8 -19 7 -13 18 -59 27 -48 9 3 -4 0 -8 -5 -8 -12 0
-13 4 -16 60 -4 67 -4 67 -15 50 -5 -8 -10 -10 -10 -4 0 7 -13 10 -30 9 -16
-1 -30 1 -30 5 0 5 -17 7 -38 5 -22 -2 -45 1 -53 7 -10 7 -9 8 7 4 15 -5 21
-2 21 9 0 9 -6 14 -13 11 -8 -3 -16 0 -20 6 -4 6 -3 8 4 4 6 -3 14 3 17 15 6
19 7 20 21 2 13 -17 13 -17 14 1 0 11 3 16 7 13 5 -6 9 -21 12 -61 2 -23 16 8
16 38 1 31 0 32 -41 32 -23 -1 -40 -5 -37 -10 4 -5 1 -6 -5 -2 -7 4 -12 29
-12 57 l0 49 -45 0 -45 0 0 50 0 50 -37 1 c-21 1 -42 1 -46 0 -5 -1 -8 11 -7
26 5 68 3 72 -39 68 -21 -1 -44 1 -52 6 -12 7 -11 9 1 9 13 0 13 1 0 10 -13 9
-13 10 0 10 13 0 13 1 0 10 -13 9 -13 10 0 10 13 0 13 1 0 10 -8 5 -11 10 -6
10 14 0 75 -58 68 -65 -3 -3 2 -3 12 1 14 5 15 9 4 15 -10 7 -10 9 2 9 13 0
13 1 0 10 -13 9 -13 11 0 20 16 10 16 10 -40 15 -16 1 -34 3 -40 4 -5 0 -10
24 -10 51 l0 50 -44 0 -44 0 0 43 c-1 67 -1 69 -14 61 -10 -6 -10 -4 -2 7 6 8
11 27 12 42 2 27 0 28 -38 26 -21 -2 -42 -1 -44 2 -3 3 -7 49 -8 102 -1 53 -5
93 -8 89 -5 -8 -78 -8 -86 0 -2 3 -4 44 -5 92 l-1 87 -31 -1 c-18 -1 -37 -2
-43 -1 -7 1 -12 33 -13 91 -2 70 1 94 13 106 10 9 16 11 16 4 0 -6 12 -10 28
-8 24 3 27 8 29 42 3 45 13 55 50 48 18 -3 24 -1 19 7 -4 6 -2 11 3 11 6 0 11
-4 11 -10 0 -5 4 -10 8 -10 5 0 9 7 9 15 0 8 -4 15 -9 15 -4 0 -8 8 -8 18 0
14 2 15 10 2 5 -8 10 -10 10 -5 0 6 -6 17 -12 24 -10 11 -10 13 0 7 6 -4 12
-2 12 5 0 7 -8 9 -21 6 -16 -4 -19 -3 -11 5 7 7 38 11 69 11 39 0 51 2 38 8
-17 6 -17 8 -3 8 10 1 17 7 15 14 -3 16 -19 27 -30 20 -5 -3 -3 -9 4 -14 10
-6 10 -9 2 -9 -19 0 -22 14 -7 35 8 10 14 13 14 7 0 -7 5 -12 11 -12 5 0 8 4
5 9 -3 4 2 17 10 27 9 10 13 13 9 7 -4 -8 0 -13 10 -13 10 0 14 5 9 13 -6 10
-4 10 7 0 24 -23 45 -15 47 17 1 17 -3 30 -9 30 -6 0 -4 7 5 15 9 9 33 15 60
15 l46 0 0 50 0 50 55 1 c142 3 140 3 99 32 -20 15 -28 16 -39 7 -8 -7 -12
-17 -8 -24 3 -6 2 -7 -2 -3 -13 11 -15 37 -3 34 6 -1 13 4 15 11 3 6 -1 10 -9
9 -7 -2 -10 -2 -5 0 4 3 4 10 0 16 -4 7 0 7 9 -1 12 -10 22 -10 35 -3 16 8 19
6 20 -12 2 -17 0 -18 -7 -7 -5 8 -12 11 -16 7 -8 -7 14 -37 27 -37 5 0 9 14 9
30 0 19 5 30 13 29 6 -1 31 -1 54 0 l41 1 -2 43 -3 43 41 1 c160 3 206 6 206
13 0 5 -11 7 -25 6 -13 -2 -22 1 -19 5 7 12 44 5 54 -10 5 -10 12 -7 23 10 15
20 19 21 43 10 20 -9 30 -9 38 -1 8 8 6 9 -9 5 -20 -7 -20 -6 -1 9 11 9 17 18
14 21 -3 3 -11 -1 -18 -10 -7 -8 -17 -15 -23 -15 -5 0 -3 8 6 18 15 16 15 18
-2 18 -10 0 -17 -5 -14 -12 5 -12 -24 -23 -44 -17 -23 8 -14 25 10 19 12 -3
16 -3 10 0 -26 12 -12 22 30 22 160 -1 208 3 201 14 -5 7 -3 8 7 2 15 -9 118
-13 117 -4 -2 19 3 30 12 25 5 -3 7 -13 4 -23 -4 -12 -2 -11 7 3 7 11 17 24
23 28 7 5 3 6 -8 3 -10 -4 -25 -1 -33 5 -7 7 -16 9 -20 6 -3 -4 -12 -2 -20 4
-8 7 -13 8 -13 1 0 -20 26 -32 40 -19 8 6 6 2 -4 -10 -20 -24 -27 -28 -25 -15
4 21 -2 24 -14 8 -12 -16 -14 -16 -14 -2 0 9 5 16 10 16 6 0 7 3 3 7 -4 4 -16
-3 -27 -17 -17 -21 -19 -22 -10 -3 13 26 14 36 3 29 -5 -3 -9 2 -9 10 0 10 4
11 11 4 15 -15 30 -12 17 4 -8 9 -8 16 -2 20 5 4 13 1 17 -5 4 -8 9 -7 15 2 7
12 9 12 9 0 0 -9 4 -10 13 -4 15 12 96 11 116 -1 10 -6 12 -5 7 2 -4 7 -1 12
9 12 9 0 14 -4 11 -8 -3 -5 1 -9 9 -9 8 0 12 4 9 9 -3 4 2 8 11 8 10 0 13 -5
9 -12 -6 -10 -4 -10 8 0 12 9 79 12 289 10 266 -3 274 -4 274 -23 0 -11 4 -26
8 -32 5 -8 3 -13 -4 -13 -8 0 -8 -4 1 -15 9 -11 35 -15 106 -15 68 0 94 -3 94
-12 0 -9 3 -9 8 -2 6 9 92 16 92 7 0 -2 -10 -8 -22 -13 -18 -7 -19 -9 -5 -9
19 -1 22 -14 8 -39 -8 -16 0 -18 87 -21 54 -2 117 -4 142 -4 l45 -1 2 -39 c1
-21 3 -41 5 -42 2 -2 31 -5 65 -7 34 -1 59 -6 57 -10 -3 -5 -1 -8 5 -8 5 0 12
4 15 9 14 23 39 3 42 -32 1 -20 -2 -37 -8 -37 -5 0 -6 5 -3 10 3 6 -1 13 -10
16 -12 5 -13 9 -5 14 8 5 7 9 -3 13 -12 4 -15 0 -12 -14 3 -13 0 -19 -8 -16
-7 2 -12 10 -12 18 -1 8 -7 13 -14 11 -7 -1 -10 2 -5 9 4 7 3 9 -3 6 -5 -3 -9
-20 -9 -38 l1 -33 90 -3 c49 -3 92 -6 94 -9 2 -2 4 -24 5 -48 l0 -44 41 -2
c22 -1 63 -2 90 -3 50 -1 50 -1 51 -34 1 -30 -6 -38 -28 -34 -5 0 -8 -3 -8 -8
0 -5 11 -9 25 -10 59 -4 65 -6 62 -16 -2 -5 -11 -9 -19 -7 -9 1 -19 -6 -22
-15 -6 -14 -4 -15 5 -6 6 6 18 9 25 6 8 -3 14 0 14 7 0 6 4 8 10 5 6 -3 7 1 4
9 -3 9 -1 16 5 16 11 0 12 -4 15 -53 1 -34 16 -44 61 -41 19 2 35 -1 35 -7 0
-6 -3 -8 -7 -6 -5 2 -18 -9 -31 -24 -13 -16 -20 -29 -15 -29 5 0 15 9 23 20
19 27 28 25 28 -5 0 -14 -6 -25 -12 -25 -6 0 -4 -4 4 -9 8 -6 14 -22 15 -38 0
-15 5 -28 12 -28 6 0 15 -3 19 -7 4 -5 2 -8 -4 -8 -7 0 -12 -4 -12 -9 0 -10
32 -7 49 3 5 4 11 0 14 -6 3 -7 4 -3 4 9 -1 12 -4 21 -7 21 -20 -2 -21 4 -4
17 16 13 16 14 2 9 -12 -4 -18 -1 -18 7 0 11 -2 11 -10 -1 -6 -10 -4 -20 7
-32 9 -10 11 -18 5 -18 -18 0 -44 43 -30 51 7 4 4 9 -8 12 -15 4 37 2 67 -2 3
-1 6 -16 6 -33 1 -18 2 -56 4 -84 3 -49 4 -50 36 -51 18 -1 33 3 33 8 0 5 -5
8 -11 6 -6 -1 -14 5 -16 13 -4 13 -3 13 6 0 6 -8 11 -10 11 -5 0 6 7 1 15 -9
8 -11 15 -41 15 -68 l0 -48 139 3 139 2 -3 45 c-4 57 -5 59 -15 35 -7 -16 -9
-17 -9 -3 -1 13 -9 16 -36 13 -34 -3 -35 -2 -36 33 -1 21 -1 43 0 50 1 8 -13
12 -44 12 l-45 0 0 45 c0 48 -5 52 -67 46 -17 -1 -23 4 -23 19 0 12 4 19 9 16
5 -3 11 1 14 9 4 9 1 12 -7 9 -8 -3 -13 2 -13 13 0 36 -3 38 -47 35 -44 -4
-44 -4 -43 30 0 64 1 63 -53 62 -27 0 -50 4 -50 9 0 5 7 6 16 3 8 -3 13 -2 10
3 -3 5 1 12 10 15 11 4 15 2 11 -7 -3 -8 3 -13 14 -13 25 0 24 8 -2 24 -12 7
-18 16 -15 19 3 3 11 1 19 -5 8 -7 18 -7 27 -2 13 9 13 10 0 11 -8 1 -19 1
-24 0 -5 -1 -5 6 -2 16 6 15 5 15 -13 -1 -11 -10 -18 -23 -14 -29 4 -6 0 -8
-11 -4 -10 4 -15 3 -11 -3 3 -6 1 -10 -4 -10 -18 0 -5 43 15 52 18 7 18 8 -1
7 -44 -2 -56 1 -49 14 6 9 5 9 -7 0 -8 -7 -25 -11 -37 -10 -20 1 -21 6 -18 49
3 51 4 51 -56 48 -40 -2 -44 4 -38 68 1 21 -2 23 -37 22 -60 -3 -75 -1 -68 10
3 6 1 10 -4 10 -6 0 -11 -4 -11 -8 0 -4 -11 -8 -24 -8 -18 0 -23 5 -20 19 2
12 -1 17 -9 14 -8 -3 -13 4 -13 17 0 13 6 23 13 23 6 0 10 -4 7 -9 -3 -4 -1
-8 5 -8 5 0 12 6 15 13 3 6 4 3 3 -7 -1 -10 3 -21 10 -23 8 -3 11 3 8 16 -3
15 0 18 13 14 9 -3 14 -2 9 2 -4 5 -24 10 -45 11 -160 13 -174 16 -131 33 22
9 22 10 3 10 -11 1 -26 -5 -33 -11 -9 -9 -12 -9 -7 -1 3 6 3 13 -1 16 -5 2 -3
3 3 1 5 -1 21 4 35 12 19 11 20 13 6 14 -10 0 -15 5 -12 10 4 6 -10 10 -38 9
-31 -2 -44 -6 -40 -15 2 -6 0 -15 -5 -18 -5 -3 -9 2 -8 12 1 13 -8 18 -45 20
l-46 3 1 47 c1 54 19 48 -167 53 -65 1 -113 6 -106 9 7 5 6 9 -4 13 -9 3 -13
16 -11 34 3 32 21 28 -169 33 -81 2 -107 6 -103 16 2 6 2 15 -2 19 -4 4 -7 12
-7 18 -1 7 -7 11 -14 9 -9 -2 -11 3 -7 14 5 14 4 15 -9 4 -8 -7 -15 -8 -15 -3
0 5 -7 10 -15 10 -8 0 -12 -4 -9 -9 3 -4 0 -8 -5 -8 -6 0 -11 -5 -11 -11 0 -8
4 -8 14 1 11 8 20 9 33 1 17 -11 17 -11 -1 -9 -13 2 -20 -4 -22 -19 -3 -19 0
-22 26 -18 17 2 30 0 30 -5 0 -5 -18 -8 -40 -7 -43 2 -47 6 -28 25 9 9 9 12 0
12 -7 0 -15 -7 -18 -15 -4 -8 -11 -15 -17 -15 -5 0 -2 9 8 20 10 11 13 20 7
20 -6 0 -14 -4 -17 -10 -3 -5 -12 -10 -18 -10 -7 0 2 11 18 24 17 13 26 28 22
32 -4 5 -12 2 -17 -6 -7 -10 -10 -11 -10 -3 0 7 -11 12 -25 11 -15 -2 -24 -8
-22 -17 1 -7 -4 -15 -11 -17 -7 -1 -8 0 -3 2 6 3 8 11 5 19 -5 11 -55 14 -262
14 -160 0 -251 -4 -242 -9 9 -6 10 -10 3 -10 -6 0 -14 4 -18 9 -3 5 -27 9 -54
8 -39 -1 -48 -4 -44 -16 4 -14 3 -14 -9 -1 -7 8 -27 15 -45 16 -24 0 -30 -3
-25 -15 3 -9 2 -13 -3 -9 -4 4 -14 3 -22 -3 -15 -13 -18 2 -3 17 6 6 2 10 -12
11 -18 2 -20 0 -8 -7 12 -8 11 -10 -5 -10 -17 0 -17 -2 -5 -10 8 -5 12 -10 7
-10 -4 0 -1 -10 8 -23 l15 -23 -108 -3 c-59 -2 -128 -3 -154 -4 l-48 0 0 -46
c0 -30 -3 -41 -9 -32 -7 11 -9 11 -14 0 -5 -12 -7 -12 -15 0 -14 20 -62 24
-55 4 4 -11 -1 -14 -23 -13 -16 1 -60 2 -98 1 -67 -1 -68 -1 -64 -26 3 -14 2
-28 -2 -30 -5 -3 -6 -14 -3 -24 4 -17 0 -20 -35 -19 -42 0 -98 -31 -84 -47 4
-5 1 -5 -7 0 -11 6 -9 12 10 27 l24 18 -25 -3 c-14 -1 -31 -6 -39 -11 -10 -6
-12 -5 -7 2 4 7 2 12 -3 12 -6 0 -11 -19 -11 -43 l0 -43 -52 -3 c-29 -1 -72
-3 -94 -4 l-41 -2 1 -42 2 -43 -48 0 -47 0 2 -44 2 -44 -49 0 c-26 -1 -50 -3
-53 -6 -3 -2 -5 -25 -5 -50 0 -42 -2 -46 -24 -46 -14 0 -23 4 -20 9 4 5 -5 4
-19 -2 -21 -10 -25 -19 -25 -55 0 -40 -2 -42 -27 -42 -16 1 -53 1 -83 1 -30 0
-61 1 -68 1 -18 2 -16 538 2 538 6 0 4 5 -4 10 -13 8 -12 10 3 10 9 0 17 5 17
12 0 6 6 4 13 -7 10 -12 16 -14 21 -7 9 14 -2 34 -14 27 -5 -3 -8 4 -7 15 2
27 11 25 27 -5 7 -14 17 -25 21 -25 9 0 6 20 -4 38 -5 7 -3 12 5 12 10 0 10 2
-1 9 -7 5 -9 11 -5 13 5 3 2 3 -6 0 -8 -3 -25 -5 -37 -6 -23 -1 -45 -16 -23
-16 10 0 10 -4 -1 -17 -12 -14 -12 -16 0 -9 9 6 12 5 9 -4 -10 -31 -24 -17
-24 24 0 43 0 43 28 35 15 -4 29 -6 29 -3 1 2 2 8 3 13 0 5 5 13 10 18 5 5 6
3 2 -4 -4 -8 -2 -13 7 -13 11 0 14 27 16 136 l2 135 -65 -2 c-54 -2 -63 -5
-58 -18 5 -14 4 -14 -12 -1 -15 12 -43 22 -47 17z m34 -20 c-2 -4 -3 -11 -3
-16 0 -5 -6 -11 -13 -14 -8 -3 -13 3 -13 18 0 15 5 22 16 20 8 -1 14 -5 13 -8z
m123 -195 c-3 -6 -16 -8 -28 -4 -14 3 -19 1 -14 -6 9 -16 -14 -26 -27 -13 -9
9 -8 11 6 5 12 -4 17 -2 15 7 -2 9 5 14 20 13 17 0 21 3 17 15 -5 12 -3 13 6
4 6 -6 8 -16 5 -21z m1443 -4 c14 -10 22 -20 20 -23 -3 -2 -16 5 -29 17 l-23
21 4 -34 c4 -31 2 -34 -21 -34 -16 -1 -33 8 -44 22 -9 13 -14 23 -9 22 4 -1
10 0 13 1 23 9 38 6 33 -6 -3 -8 -10 -14 -17 -14 -6 0 -5 -4 4 -9 20 -14 27
-6 25 27 -2 33 8 35 44 10z m81 0 c0 -6 -6 -5 -15 2 -8 7 -15 14 -15 16 0 2 7
1 15 -2 8 -4 15 -11 15 -16z m586 -10 c-18 -26 -22 -17 -5 14 6 11 13 17 16
15 3 -3 -2 -16 -11 -29z m-596 -29 c0 -4 -4 -11 -10 -14 -6 -3 -7 1 -4 9 3 9
1 16 -5 16 -6 0 -11 -4 -11 -9 0 -17 -34 -22 -49 -6 -9 9 -11 15 -4 15 6 0 13
-6 16 -12 7 -24 38 12 31 36 -6 20 -5 19 15 -3 11 -13 21 -28 21 -32z m727 34
c-4 -3 -3 -11 3 -17 6 -8 1 -12 -19 -11 -15 0 -28 5 -28 12 0 6 6 9 13 6 6 -2
15 0 19 6 3 6 9 11 12 11 4 0 3 -3 0 -7z m-2264 -28 c-3 -9 -8 -14 -10 -11 -3
3 -2 9 2 15 9 16 15 13 8 -4z m1607 1 c0 -2 -7 -7 -16 -10 -8 -3 -12 -2 -9 4
6 10 25 14 25 6z m480 -6 c0 -5 -5 -10 -11 -10 -5 0 -7 5 -4 10 3 6 8 10 11
10 2 0 4 -4 4 -10z m60 -4 c0 -3 -4 -8 -10 -11 -5 -3 -10 -1 -10 4 0 6 5 11
10 11 6 0 10 -2 10 -4z m-1006 -35 c3 -4 -4 -17 -15 -27 -18 -16 -19 -16 -13
-1 3 9 10 17 16 17 5 0 6 5 3 10 -3 6 -4 10 -1 10 3 0 7 -4 10 -9z m1346 -1
c0 -5 -5 -10 -11 -10 -5 0 -7 5 -4 10 3 6 8 10 11 10 2 0 4 -4 4 -10z m37 -32
c-3 -7 -5 -2 -5 12 0 14 2 19 5 13 2 -7 2 -19 0 -25z m-37 -8 c0 -5 -5 -10
-11 -10 -5 0 -7 5 -4 10 3 6 8 10 11 10 2 0 4 -4 4 -10z m-1357 -21 c-8 -8
-13 -7 -18 2 -5 8 -4 10 3 5 7 -4 12 -2 12 5 0 7 3 9 7 6 4 -4 2 -12 -4 -18z
m-118 1 c3 -5 -1 -10 -9 -10 -9 0 -16 5 -16 10 0 6 4 10 9 10 6 0 13 -4 16
-10z m1505 6 c0 -2 -7 -7 -16 -10 -8 -3 -12 -2 -9 4 6 10 25 14 25 6z m30 0
c0 -3 -4 -8 -10 -11 -5 -3 -10 -1 -10 4 0 6 5 11 10 11 6 0 10 -2 10 -4z
m-2985 -35 c3 -5 2 -12 -3 -15 -5 -3 -9 1 -9 9 0 17 3 19 12 6z m-35 -11 c0
-5 -4 -10 -10 -10 -5 0 -10 5 -10 10 0 6 5 10 10 10 6 0 10 -4 10 -10z m3291
-7 c13 -16 12 -17 -3 -4 -17 13 -22 21 -14 21 2 0 10 -8 17 -17z m-1391 -13
c0 -5 -5 -10 -11 -10 -5 0 -7 5 -4 10 3 6 8 10 11 10 2 0 4 -4 4 -10z m-1905
-20 c3 -5 1 -10 -4 -10 -6 0 -11 5 -11 10 0 6 2 10 4 10 3 0 8 -4 11 -10z
m3311 -2 c4 -4 -4 -5 -16 -3 -13 3 -29 0 -35 -5 -8 -7 -12 -5 -12 4 0 14 50
17 63 4z m-1741 -64 c-8 -6 -11 -15 -7 -19 4 -5 1 -5 -7 0 -12 7 -12 10 1 19
8 6 13 18 11 26 -4 13 -3 13 6 0 8 -11 7 -18 -4 -26z m45 26 c0 -5 -5 -10 -11
-10 -5 0 -7 5 -4 10 3 6 8 10 11 10 2 0 4 -4 4 -10z m1483 -16 c-4 -11 -9 -12
-18 -4 -9 8 -15 8 -18 0 -3 -6 -4 -5 -3 2 2 7 11 12 21 10 11 -2 14 1 9 9 -4
8 -3 10 4 5 6 -4 9 -13 5 -22z m387 6 c0 -5 -7 -7 -15 -4 -8 4 -15 8 -15 10 0
2 7 4 15 4 8 0 15 -4 15 -10z m-42 -26 c0 -17 -3 -22 -8 -13 -5 6 -6 18 -3 26
8 19 11 16 11 -13z m-2324 0 c3 -8 2 -12 -4 -9 -6 3 -10 1 -10 -6 0 -7 -2 -10
-5 -7 -5 5 4 38 10 38 2 0 6 -7 9 -16z m2003 1 c0 -8 -4 -15 -9 -15 -4 0 -8 7
-8 15 0 8 4 15 8 15 5 0 9 -7 9 -15z m-1510 -1 c-3 -3 -12 -4 -19 -1 -8 3 -5
6 6 6 11 1 17 -2 13 -5z m-445 -11 c-6 -2 -10 -9 -6 -14 3 -5 0 -9 -5 -9 -12
0 -14 13 -4 23 3 4 11 7 17 6 6 0 5 -3 -2 -6z m478 -3 c0 -5 -2 -10 -4 -10 -3
0 -8 5 -11 10 -3 6 -1 10 4 10 6 0 11 -4 11 -10z m1438 3 c-10 -2 -18 -9 -18
-14 0 -6 -5 -7 -11 -3 -14 8 8 24 31 23 11 -1 10 -3 -2 -6z m-2108 -58 c-6 -7
-5 -16 2 -23 9 -9 9 -15 0 -24 -16 -16 -50 -17 -63 -2 -8 10 -5 12 15 8 24 -4
25 -3 14 16 -7 11 -14 16 -16 10 -5 -15 -19 -12 -19 4 0 10 9 12 31 9 23 -3
27 -1 16 6 -12 8 -11 10 7 8 15 -1 19 -5 13 -12z m-133 -100 c0 -8 -4 -12 -9
-9 -5 3 -6 10 -3 15 9 13 12 11 12 -6z m38 5 c3 -5 1 -10 -4 -10 -6 0 -11 5
-11 10 0 6 2 10 4 10 3 0 8 -4 11 -10z m2552 -7 c-4 -3 -2 -12 5 -20 6 -7 8
-16 4 -20 -3 -3 -6 0 -6 8 0 12 -2 11 -10 -1 -8 -11 -9 -9 -6 10 6 32 5 30 13
30 3 0 3 -3 0 -7z m-2207 -33 c0 -5 -2 -10 -4 -10 -3 0 -8 5 -11 10 -3 6 -1
10 4 10 6 0 11 -4 11 -10z m2260 6 c0 -2 -7 -7 -16 -10 -8 -3 -12 -2 -9 4 6
10 25 14 25 6z m280 0 c0 -3 -4 -8 -10 -11 -5 -3 -10 -1 -10 4 0 6 5 11 10 11
6 0 10 -2 10 -4z m-3900 -100 c-7 -9 -18 -16 -24 -16 -6 0 -2 8 9 16 14 11 16
18 8 21 -7 3 -13 10 -13 16 0 6 7 4 17 -5 13 -14 14 -20 3 -32z m3804 16 c3
-5 -1 -9 -9 -9 -8 0 -15 4 -15 9 0 4 4 8 9 8 6 0 12 -4 15 -8z m-3844 -26 c0
-3 -4 -8 -10 -11 -5 -3 -10 -1 -10 4 0 6 5 11 10 11 6 0 10 -2 10 -4z m1130
-58 c0 -5 -4 -7 -9 -4 -5 4 -11 0 -14 -6 -3 -7 -4 -3 -4 8 1 21 27 23 27 2z
m-115 -78 c-10 -11 -22 -20 -26 -20 -5 0 2 10 14 23 27 28 38 25 12 -3z m2
-36 c-3 -3 -12 -4 -19 -1 -8 3 -5 6 6 6 11 1 17 -2 13 -5z m-1107 -44 c-12
-23 -10 -41 8 -55 11 -9 8 -16 -12 -38 -30 -32 -34 -28 -8 10 9 15 12 24 5 20
-6 -4 -14 -3 -17 2 -4 5 -2 12 4 16 7 4 7 13 -1 26 -6 12 -8 23 -5 27 3 3 6
-1 6 -9 1 -10 3 -9 11 4 14 24 22 22 9 -3z m1003 -5 c-10 -13 -22 -25 -27 -25
-9 0 11 29 29 42 17 13 17 9 -2 -17z m37 -15 c0 -5 -7 -7 -15 -4 -8 4 -15 8
-15 10 0 2 7 4 15 4 8 0 15 -4 15 -10z m-10 -20 c12 -7 10 -9 -8 -7 -12 0 -22
5 -22 9 0 11 12 10 30 -2z m-40 -10 c0 -5 -5 -10 -11 -10 -5 0 -7 5 -4 10 3 6
8 10 11 10 2 0 4 -4 4 -10z m-970 -58 c0 -5 -6 -16 -13 -27 -11 -14 -16 -15
-22 -5 -6 9 -4 11 5 5 10 -6 12 -4 7 9 -4 10 -3 15 3 11 6 -3 10 -1 10 4 0 6
2 11 5 11 3 0 5 -4 5 -8z m7 -40 c0 -10 -6 -19 -13 -19 -9 0 -9 5 -1 19 7 10
13 18 14 18 1 0 1 -8 0 -18z m-43 -10 c3 -5 -1 -9 -9 -9 -8 0 -15 4 -15 9 0 4
4 8 9 8 6 0 12 -4 15 -8z m4381 -22 c-3 -5 -12 -10 -18 -10 -7 0 -6 4 3 10 19
12 23 12 15 0z m40 0 c3 -5 1 -10 -4 -10 -6 0 -11 5 -11 10 0 6 2 10 4 10 3 0
8 -4 11 -10z m-4411 -18 c3 -5 -1 -9 -9 -9 -8 0 -12 4 -9 9 3 4 7 8 9 8 2 0 6
-4 9 -8z m4406 -7 c0 -1 -12 -2 -26 -2 -17 0 -22 2 -13 7 10 7 39 3 39 -5z
m240 -75 c0 -5 -2 -10 -4 -10 -3 0 -8 5 -11 10 -3 6 -1 10 4 10 6 0 11 -4 11
-10z m50 -42 c0 -5 -5 -8 -11 -8 -5 0 -8 4 -5 9 3 5 -1 11 -9 15 -8 3 -15 10
-15 16 0 5 9 2 20 -7 11 -10 20 -21 20 -25z m-59 20 c8 -7 22 -22 29 -32 14
-18 14 -18 -7 -6 -12 8 -19 18 -17 22 5 7 -10 12 -28 9 -5 0 -8 4 -8 9 0 14
13 13 31 -2z m-7 -34 c3 -8 2 -12 -4 -9 -6 3 -10 10 -10 16 0 14 7 11 14 -7z
m-3609 -223 c-3 -5 -1 -12 5 -16 5 -3 10 -10 10 -16 0 -5 -8 -1 -18 9 -12 11
-14 20 -8 24 15 10 18 10 11 -1z m-14 -36 c5 4 6 0 3 -8 -3 -10 2 -14 17 -13
12 0 24 -6 26 -14 3 -10 2 -11 -4 -4 -4 6 -16 10 -26 8 -16 -2 -38 24 -36 43
0 4 3 2 6 -5 2 -6 9 -10 14 -7z m56 -7 c-3 -8 -6 -5 -6 6 -1 11 2 17 5 13 3
-3 4 -12 1 -19z m-411 -63 c-1 -8 -5 -17 -8 -21 -5 -4 -4 16 1 34 3 9 9 -1 7
-13z m44 -75 c0 -5 -5 -10 -11 -10 -5 0 -7 5 -4 10 3 6 8 10 11 10 2 0 4 -4 4
-10z m30 -25 c14 -19 14 -19 -2 -6 -10 7 -18 18 -18 24 0 6 1 8 3 6 1 -2 9
-13 17 -24z m30 15 c0 -5 -2 -10 -4 -10 -3 0 -8 5 -11 10 -3 6 -1 10 4 10 6 0
11 -4 11 -10z m40 -14 c0 -2 -9 -6 -20 -9 -11 -3 -18 -1 -14 4 5 9 34 13 34 5z
m316 -42 c1 -9 -1 -13 -4 -9 -4 4 -7 10 -7 13 0 4 -4 14 -9 22 -7 12 -6 13 4
3 8 -7 15 -20 16 -29z m-385 -17 c-14 -14 -14 -27 0 -27 5 0 8 3 6 8 -3 4 1
12 8 19 10 10 14 9 19 -2 2 -7 1 -16 -5 -19 -5 -2 -4 -3 3 -1 7 1 12 8 11 14
-3 13 -1 13 21 5 9 -3 13 -11 9 -17 -4 -6 -6 -24 -5 -40 2 -25 -1 -29 -18 -24
-22 6 -26 -3 -9 -20 8 -8 5 -14 -12 -22 -20 -10 -21 -9 -7 1 16 12 15 15 -10
41 l-27 29 25 -6 c14 -3 19 -3 11 0 -11 5 -11 8 0 16 10 7 9 8 -6 4 -22 -6
-54 9 -42 20 4 4 3 12 -2 18 -6 7 -1 11 16 13 18 1 22 -2 14 -10z m-14 -53
c-3 -4 0 -19 8 -35 14 -27 14 -29 -7 -39 -21 -10 -21 -10 -5 3 16 13 16 16 2
30 -18 18 -20 47 -3 47 6 0 9 -3 5 -6z m169 -61 c1 -13 -2 -20 -8 -17 -6 4 -6
-1 0 -13 6 -11 10 -33 10 -50 -1 -16 1 -34 4 -39 9 -15 -11 -56 -23 -48 -7 4
-24 7 -38 8 -23 1 -26 6 -28 39 -2 27 1 36 10 30 9 -5 9 -3 1 8 -7 8 -14 31
-16 52 -4 39 7 47 31 25 9 -9 12 -9 7 -1 -3 6 -3 13 1 16 5 2 3 2 -4 1 -7 -2
-15 1 -19 7 -3 6 9 9 33 8 32 -2 38 -6 39 -26z m-854 -18 c3 0 9 -3 13 -7 4
-3 0 -5 -9 -4 -9 1 -22 8 -29 16 -10 10 -9 11 3 4 8 -5 18 -9 22 -9z m731 -22
c-7 -2 -19 -2 -25 0 -7 3 -2 5 12 5 14 0 19 -2 13 -5z m-23 -23 c0 -5 -2 -10
-4 -10 -3 0 -8 5 -11 10 -3 6 -1 10 4 10 6 0 11 -4 11 -10z m40 0 c0 -5 -2
-10 -4 -10 -3 0 -8 5 -11 10 -3 6 -1 10 4 10 6 0 11 -4 11 -10z m-740 -10 c0
-5 -5 -10 -11 -10 -5 0 -7 5 -4 10 3 6 8 10 11 10 2 0 4 -4 4 -10z m896 -26
c1 -9 0 -13 -4 -10 -3 4 -7 14 -8 22 -1 9 0 13 4 10 3 -4 7 -14 8 -22z m393 0
c-7 -8 -6 -14 3 -17 7 -3 8 -6 2 -6 -6 -1 -18 7 -27 17 -15 17 -15 18 8 18 18
0 21 -3 14 -12z m-1341 -18 c-7 -8 -15 -12 -17 -11 -5 6 10 25 20 25 5 0 4 -6
-3 -14z m933 -3 c13 -16 12 -17 -3 -4 -10 7 -18 15 -18 17 0 8 8 3 21 -13z
m59 1 c0 -8 -19 -13 -24 -6 -3 5 1 9 9 9 8 0 15 -2 15 -3z m-35 -24 c-3 -5
-12 -10 -18 -10 -7 0 -6 4 3 10 19 12 23 12 15 0z m-942 -7 c-7 -2 -19 -2 -25
0 -7 3 -2 5 12 5 14 0 19 -2 13 -5z m873 -48 c-1 -8 -5 -17 -8 -21 -5 -4 -4
16 1 34 3 9 9 -1 7 -13z m-849 -12 c0 -9 -4 -10 -13 -2 -8 6 -14 6 -18 0 -4
-5 -2 -12 4 -16 6 -4 8 -11 4 -16 -9 -15 -33 9 -29 29 4 20 0 18 28 18 13 0
24 -6 24 -13z m811 -3 c-7 -10 -14 -17 -17 -15 -4 4 18 35 25 35 2 0 -1 -9 -8
-20z m-338 -152 c0 -5 4 -7 8 -4 4 2 8 -4 8 -14 0 -19 -1 -19 -18 0 -18 19
-49 18 -45 -2 1 -6 -5 -13 -13 -15 -13 -4 -13 -3 0 6 8 6 11 11 5 11 -16 1 23
27 40 27 8 0 15 -4 15 -9z m624 0 c-3 -4 -1 -8 5 -8 12 0 9 -19 -7 -45 -8 -14
-12 -16 -12 -5 0 12 -2 13 -9 1 -5 -8 -7 1 -6 25 4 45 1 41 20 41 8 0 12 -4 9
-9z m-534 -18 c8 -5 11 -10 5 -10 -5 0 -17 5 -25 10 -8 5 -10 10 -5 10 6 0 17
-5 25 -10z m-115 -30 c-3 -6 1 -13 9 -16 9 -3 16 -11 16 -17 0 -5 -9 -2 -20 8
-11 10 -20 13 -20 8 0 -6 -7 -14 -16 -17 -13 -5 -14 -4 -6 7 7 8 8 18 4 22 -4
5 -1 5 6 1 6 -4 12 -2 12 3 0 6 5 11 11 11 5 0 7 -5 4 -10z m110 -35 c18 0 20
-7 20 -67 0 -36 2 -65 6 -62 13 8 17 -22 4 -39 -8 -11 -26 -17 -54 -17 l-41 0
0 56 c0 47 2 55 14 45 11 -9 16 -9 22 0 4 8 3 9 -4 5 -7 -4 -12 -2 -12 4 0 7
11 9 28 7 19 -3 29 0 29 8 0 13 -28 13 -61 0 -16 -7 -18 -5 -14 18 3 16 1 27
-6 27 -6 1 0 7 14 15 14 7 27 10 30 7 3 -4 14 -7 25 -7z m455 -16 c0 -8 -47
-5 -55 3 -3 3 9 5 25 5 17 0 30 -4 30 -8z m154 -5 c3 -8 2 -12 -4 -9 -6 3 -10
10 -10 16 0 14 7 11 14 -7z m-124 -8 c0 -3 -4 -8 -10 -11 -5 -3 -10 -1 -10 4
0 6 5 11 10 11 6 0 10 -2 10 -4z m167 -2 c-3 -3 -12 -4 -19 -1 -8 3 -5 6 6 6
11 1 17 -2 13 -5z m-197 -16 c0 -5 -4 -6 -10 -3 -5 3 -15 -3 -22 -15 -7 -11
-17 -20 -22 -20 -4 0 -3 7 5 16 10 12 10 17 0 23 -7 5 1 8 19 8 16 0 30 -4 30
-9z m207 -20 c-3 -8 -6 -5 -6 6 -1 11 2 17 5 13 3 -3 4 -12 1 -19z m-195 -10
c-7 -7 -12 -8 -12 -2 0 14 12 26 19 19 2 -3 -1 -11 -7 -17z m-932 -28 c6 -11
8 -20 6 -20 -3 0 -10 9 -16 20 -6 11 -8 20 -6 20 3 0 10 -9 16 -20z m1586 -2
c12 -1 12 -63 1 -75 -4 -3 -7 -1 -7 5 0 7 -5 12 -11 12 -5 0 -8 -4 -5 -8 3 -5
-5 -8 -16 -7 -17 1 -22 9 -23 36 -3 44 1 49 28 43 12 -3 27 -6 33 -6z m-1592
-33 c11 -8 15 -15 9 -15 -7 0 -15 5 -18 10 -4 6 -11 8 -16 5 -5 -4 -9 -1 -9 4
0 15 11 13 34 -4z m1675 -74 c6 -10 7 -21 4 -25 -3 -3 -2 -6 4 -6 5 0 10 -7
10 -15 0 -9 -7 -14 -16 -13 -10 2 -16 14 -16 30 -1 36 -8 41 -23 18 -7 -12 -8
-20 -2 -20 5 0 10 -7 10 -16 0 -20 -22 -13 -26 8 -2 18 22 58 36 58 5 0 14 -8
19 -19z m66 -82 c-4 -5 5 -14 19 -20 21 -10 23 -14 13 -30 -11 -17 -49 -20
-65 -4 -12 11 7 16 26 6 17 -9 19 -8 15 9 -3 11 -10 20 -15 20 -5 0 -6 -4 -3
-10 3 -6 -1 -7 -10 -3 -13 5 -14 7 -3 14 10 7 10 9 1 9 -21 0 -14 16 7 17 11
1 18 -2 15 -8z m-1055 -49 c0 -5 -2 -10 -4 -10 -3 0 -8 5 -11 10 -3 6 -1 10 4
10 6 0 11 -4 11 -10z m74 -28 c2 -4 -5 -9 -17 -9 -17 -2 -19 0 -7 7 18 12 18
12 24 2z m435 -19 c-8 -9 -8 -13 0 -14 6 -1 16 -2 23 -3 7 0 13 -12 13 -26 2
-23 -2 -26 -32 -26 -18 0 -33 4 -33 9 0 4 -6 5 -12 1 -9 -5 -9 -2 1 9 11 14
11 17 0 17 -11 0 -11 2 1 10 13 8 13 10 1 10 -11 0 -10 3 3 13 10 8 25 14 32
14 10 0 11 -4 3 -14z m-485 -23 c-6 -6 -10 -3 -10 10 0 13 4 16 10 10 7 -7 7
-13 0 -20z m52 -18 c1 -7 0 -8 -3 -2 -2 5 -9 10 -14 10 -6 0 -7 -5 -3 -12 4
-7 3 -8 -5 -4 -14 9 -4 29 12 23 6 -2 12 -9 13 -15z m-796 -16 c0 -3 -4 -8
-10 -11 -5 -3 -10 -1 -10 4 0 6 5 11 10 11 6 0 10 -2 10 -4z m1974 -41 c3 -8
1 -15 -4 -15 -6 0 -10 7 -10 15 0 8 2 15 4 15 2 0 6 -7 10 -15z m36 -19 c0 -9
-32 -36 -42 -36 -6 0 0 9 13 20 25 21 29 23 29 16z m-41 -9 c-2 -1 -13 -9 -24
-17 -19 -14 -19 -14 -6 3 7 9 18 17 24 17 6 0 8 -1 6 -3z m-1939 -17 c0 -5 -5
-10 -11 -10 -5 0 -7 5 -4 10 3 6 8 10 11 10 2 0 4 -4 4 -10z m1653 -39 c-4 -3
-11 -10 -15 -15 -4 -4 -6 1 -5 12 1 12 6 18 15 15 7 -3 10 -9 5 -12z m-698
-81 c-3 -5 -1 -10 4 -10 6 0 11 -5 11 -10 0 -6 -6 -10 -12 -9 -26 3 -39 -1
-33 -11 3 -5 4 -10 1 -10 -2 0 -13 -3 -23 -6 -15 -5 -16 -4 -3 5 13 10 13 12
0 22 -13 9 -12 10 3 5 11 -3 22 2 29 14 7 11 16 20 21 20 4 0 5 -4 2 -10z
m-229 -25 c-1 -8 -5 -17 -8 -21 -5 -4 -4 16 1 34 3 9 9 -1 7 -13z m1029 -33
c-3 -3 -12 -7 -19 -8 -12 -2 -13 4 -7 35 1 2 8 -2 16 -9 9 -7 13 -15 10 -18z
m195 -76 c0 -3 -4 -8 -10 -11 -5 -3 -10 -1 -10 4 0 6 5 11 10 11 6 0 10 -2 10
-4z m-813 -53 c-4 -3 -1 -13 6 -22 10 -14 10 -14 -5 -3 -10 8 -19 9 -22 3 -4
-5 3 -13 14 -16 17 -5 19 -10 9 -21 -6 -8 -17 -14 -23 -13 -7 0 -6 2 2 6 6 2
12 9 12 14 0 6 -4 8 -9 5 -16 -10 -20 23 -5 39 9 8 18 15 21 15 4 0 3 -3 0 -7z
m1346 -60 c-5 -11 -8 -12 -13 -2 -5 7 -6 19 -3 26 5 11 8 12 13 2 5 -7 6 -19
3 -26z m57 3 c0 -2 -7 -6 -15 -10 -8 -3 -15 -1 -15 4 0 6 7 10 15 10 8 0 15
-2 15 -4z m-2423 -37 c-9 -6 -22 -7 -29 -3 -7 4 -8 3 -4 -5 4 -7 17 -9 29 -6
17 5 19 4 7 -4 -13 -10 -13 -11 0 -11 13 0 13 -1 0 -10 -12 -8 -12 -10 -1 -10
23 0 4 -12 -24 -16 -20 -2 -25 1 -21 12 3 8 2 12 -3 9 -5 -3 -13 -1 -16 5 -4
6 -3 10 2 9 4 -1 15 -1 23 0 11 1 11 4 2 13 -19 19 -14 25 21 26 26 1 29 -1
14 -9z m1099 -1 c-4 6 -2 12 3 12 6 0 11 -7 11 -15 0 -8 5 -15 11 -15 6 0 3
-7 -5 -16 -20 -19 -20 -25 -1 -18 8 4 15 2 15 -4 0 -7 -29 -10 -49 -3 -2 0 4
10 14 21 17 19 17 19 -4 15 -11 -2 -21 1 -21 7 0 6 -3 9 -6 5 -3 -3 -2 -12 2
-19 13 -20 14 -40 1 -35 -14 4 -17 49 -4 65 8 10 13 10 25 0 13 -10 14 -10 8
0z m1021 3 c8 7 13 8 12 3 -4 -21 2 -35 11 -29 6 4 5 -5 -2 -19 -10 -24 -30
-37 -27 -18 1 4 1 13 0 21 -1 16 -16 5 -16 -11 0 -6 -7 -13 -15 -15 -13 -4
-13 -3 0 6 11 8 12 11 2 11 -8 0 -12 6 -9 13 2 6 10 11 17 9 7 -2 10 5 6 20
-3 13 -3 17 0 10 5 -10 9 -10 21 -1z m484 -28 c13 -16 12 -17 -3 -4 -17 13
-22 21 -14 21 2 0 10 -8 17 -17z m-941 -11 c0 -5 -7 -9 -15 -9 -8 0 -15 4 -15
9 0 4 7 8 15 8 8 0 15 -4 15 -8z m884 0 c3 -5 -1 -9 -9 -9 -8 0 -12 4 -9 9 3
4 7 8 9 8 2 0 6 -4 9 -8z m-934 -32 c0 -5 -2 -10 -4 -10 -3 0 -8 5 -11 10 -3
6 -1 10 4 10 6 0 11 -4 11 -10z m713 -25 c-3 -9 -8 -14 -10 -11 -3 3 -2 9 2
15 9 16 15 13 8 -4z m-1433 -5 c0 -5 -5 -10 -11 -10 -5 0 -7 5 -4 10 3 6 8 10
11 10 2 0 4 -4 4 -10z m30 -24 c-13 -13 -13 -29 0 -21 6 4 7 -1 3 -11 -5 -13
-7 -14 -14 -2 -4 8 -6 23 -4 34 2 10 4 24 4 29 1 6 6 3 11 -5 6 -9 6 -18 0
-24z m1910 22 c0 -5 5 -6 12 -2 7 4 8 3 4 -5 -4 -6 -12 -9 -17 -6 -5 4 -9 1
-9 -4 0 -6 6 -11 14 -11 16 0 27 -23 18 -36 -11 -16 -47 -10 -47 7 0 9 -7 25
-15 35 -14 18 -14 18 4 4 17 -14 18 -13 12 6 -4 15 -2 21 9 21 8 0 15 -4 15
-9z m-493 -30 c-3 -7 -5 -2 -5 12 0 14 2 19 5 13 2 -7 2 -19 0 -25z m-1447 2
c0 -5 -4 -10 -10 -10 -5 0 -10 5 -10 10 0 6 5 10 10 10 6 0 10 -4 10 -10z m3
-34 c4 -10 1 -13 -9 -9 -15 6 -19 23 -5 23 5 0 11 -7 14 -14z m1432 4 c-3 -5
-11 -10 -16 -10 -6 0 -7 5 -4 10 3 6 11 10 16 10 6 0 7 -4 4 -10z m250 -30
c-3 -5 -14 -10 -23 -9 -14 0 -13 2 3 9 27 11 27 11 20 0z m20 -10 c-16 -17
-16 -20 -2 -20 21 0 31 -17 16 -26 -7 -4 -9 -3 -6 3 4 6 -3 13 -15 16 -21 6
-21 7 -3 27 10 11 20 20 23 20 3 0 -3 -9 -13 -20z m-1582 -11 c-8 -8 -13 -7
-18 2 -5 8 -4 10 3 5 7 -4 12 -2 12 5 0 7 3 9 7 6 4 -4 2 -12 -4 -18z m2321 9
c-3 -4 -9 -8 -15 -8 -5 0 -9 4 -9 8 0 5 7 9 15 9 8 0 12 -4 9 -9z m1036 -2
c-4 -4 -16 -4 -26 2 -16 9 -14 10 8 9 15 -1 23 -6 18 -11z m230 8 c0 -8 -19
-13 -24 -6 -3 5 1 9 9 9 8 0 15 -2 15 -3z m-1390 -14 c0 -5 -4 -10 -10 -10 -5
0 -10 5 -10 10 0 6 5 10 10 10 6 0 10 -4 10 -10z m-3123 -14 c-3 -8 -2 -17 4
-20 5 -2 4 -3 -2 -2 -15 3 -21 36 -7 36 6 0 8 -6 5 -14z m4521 -6 c-7 -10 -14
-17 -17 -15 -4 4 18 35 25 35 2 0 -1 -9 -8 -20z m-1388 -10 c-35 -24 -54 -31
-30 -11 14 11 30 21 35 21 6 0 3 -5 -5 -10z m24 -18 c2 -4 -4 -8 -14 -8 -10 0
-16 4 -14 8 3 4 9 8 14 8 5 0 11 -4 14 -8z m1106 -2 c0 -5 -2 -10 -4 -10 -3 0
-8 5 -11 10 -3 6 -1 10 4 10 6 0 11 -4 11 -10z m-3820 -18 c0 -3 -8 -15 -17
-26 -10 -12 -14 -18 -9 -13 5 4 20 -3 33 -15 22 -21 38 -25 101 -27 20 -1 22
-6 22 -51 l0 -50 45 0 c38 0 45 -3 45 -20 0 -11 6 -20 13 -21 10 0 10 -2 0 -6
-7 -2 -13 -14 -13 -25 0 -18 2 -19 17 -7 11 10 14 10 9 2 -4 -8 -1 -13 9 -13
9 0 14 4 11 9 -3 4 4 17 17 27 l22 19 -19 -22 c-21 -25 -15 -31 40 -37 23 -3
28 -8 27 -24 -2 -16 2 -20 15 -16 14 5 14 4 2 -4 -19 -14 -32 -5 -25 19 5 14
3 17 -9 13 -18 -7 -22 -44 -5 -44 29 0 -29 -34 -60 -35 -20 -1 -34 -6 -31 -11
3 -5 10 -9 17 -9 6 0 15 -4 20 -8 4 -5 1 -7 -7 -5 -10 2 -14 -3 -12 -16 2 -10
-1 -15 -7 -12 -5 4 -12 2 -15 -3 -4 -5 -1 -13 5 -17 7 -4 9 -3 5 4 -4 7 1 10
13 7 15 -3 18 1 14 13 -5 15 -4 15 8 0 10 -13 18 -15 29 -8 11 7 11 10 2 10
-10 0 -10 5 -2 23 10 20 10 20 -3 5 -18 -23 -22 -23 -24 3 -1 12 1 18 4 15 4
-3 16 0 28 8 13 9 35 12 60 9 22 -3 59 -6 83 -6 25 0 38 -4 30 -8 -6 -4 -16
-5 -20 -3 -4 3 -8 0 -8 -6 0 -6 -5 -8 -12 -3 -27 16 -35 10 -33 -28 3 -53 -5
-57 -88 -51 -10 1 -15 7 -11 13 5 8 1 8 -14 0 -15 -8 -23 -8 -28 0 -5 8 -8 8
-14 0 -10 -17 -39 -2 -37 20 1 10 5 19 9 19 4 0 8 5 8 11 0 5 -4 8 -8 5 -8 -4
-11 12 -17 84 -4 46 -3 44 -20 30 -12 -10 -15 -10 -15 1 0 11 -2 11 -10 -1 -8
-12 -10 -12 -10 -1 0 8 -3 11 -7 8 -4 -4 9 -23 27 -42 19 -19 32 -35 29 -36
-2 -1 -20 -2 -39 -3 l-36 -2 -1 45 c-3 72 -5 79 -25 85 -14 3 -18 0 -14 -10 3
-8 2 -13 -3 -9 -5 3 -11 0 -13 -7 -3 -7 -7 -5 -11 6 -4 9 -3 15 2 12 5 -3 11
0 14 8 4 9 14 12 26 9 14 -3 19 0 17 11 -3 21 -16 33 -16 15 -1 -10 -4 -9 -11
4 -8 13 -14 15 -29 7 -29 -15 -30 -14 -30 44 0 39 -4 55 -15 60 -8 3 -15 0
-16 -7 0 -9 -2 -8 -6 1 -4 9 -8 10 -18 2 -9 -8 -15 -8 -20 0 -3 6 -10 8 -13 6
-4 -2 -8 14 -8 37 0 39 2 42 28 44 16 0 28 -2 28 -5z m24 -7 c-13 -11 -14 -13
-3 -9 12 4 17 -1 17 -20 0 -30 -5 -32 -29 -10 -15 13 -16 20 -6 35 6 10 18 19
26 19 11 0 9 -4 -5 -15z m1476 -1 c0 -8 -19 -13 -24 -6 -3 5 1 9 9 9 8 0 15
-2 15 -3z m1654 -16 c-5 -7 -1 -9 9 -5 10 4 14 2 11 -7 -3 -7 -11 -13 -19 -13
-8 0 -12 4 -9 9 3 4 -1 8 -8 9 -10 0 -10 2 0 6 6 2 9 10 6 15 -4 7 -2 8 5 4 6
-4 8 -12 5 -18z m-699 2 c3 -5 1 -10 -4 -10 -6 0 -11 5 -11 10 0 6 2 10 4 10
3 0 8 -4 11 -10z m-51 -18 c3 -5 -1 -9 -9 -9 -8 0 -12 4 -9 9 3 4 7 8 9 8 2 0
6 -4 9 -8z m646 2 c0 -8 -19 -13 -24 -6 -3 5 1 9 9 9 8 0 15 -2 15 -3z m198
-7 c22 -14 3 -26 -22 -14 -13 7 -22 15 -20 18 5 9 24 6 42 -4z m-2124 -50 c16
-12 15 -14 -5 -36 -15 -16 -24 -20 -32 -12 -7 7 -5 16 7 30 13 15 14 20 4 24
-7 3 -8 6 -2 6 5 1 18 -5 28 -12z m-507 -18 c-1 -12 4 -23 11 -25 7 -1 8 0 2
3 -13 6 -13 23 -1 23 5 0 13 -9 16 -20 3 -11 13 -20 22 -20 31 0 5 -24 -28
-26 -33 -2 -35 0 -36 29 -1 35 3 57 12 57 2 0 4 -10 2 -21z m3098 -8 c3 -5 2
-12 -3 -15 -5 -3 -9 1 -9 9 0 17 3 19 12 6z m-3539 -37 c1 -9 0 -13 -4 -10 -3
4 -7 14 -8 22 -1 9 0 13 4 10 3 -4 7 -14 8 -22z m969 -4 c3 -6 -1 -7 -9 -4
-18 7 -21 14 -7 14 6 0 13 -4 16 -10z m169 -34 c-6 -16 -44 -18 -44 -3 0 5 7
7 15 4 8 -4 17 -2 20 3 9 15 15 12 9 -4z m-1048 -24 c-17 -16 -18 -16 -5 5 7
12 15 20 18 17 3 -2 -3 -12 -13 -22z m458 13 c3 -8 3 -23 0 -32 -3 -10 2 -6
11 10 22 38 28 34 9 -6 -10 -20 -23 -33 -35 -33 -10 0 -19 4 -19 8 0 4 5 8 11
8 8 0 8 4 2 13 -8 10 -9 22 -4 42 2 11 19 4 25 -10z m1126 5 c0 8 3 10 6 7 4
-4 1 -13 -6 -22 -13 -16 -10 -18 14 -9 9 3 13 11 9 17 -3 5 -2 7 4 4 5 -3 9
-16 7 -29 -1 -13 -3 -27 -3 -33 -1 -5 -5 -3 -10 5 -6 8 -7 18 -4 24 3 5 1 6
-5 2 -6 -4 -9 -13 -5 -21 4 -11 -1 -14 -18 -12 -19 3 -24 10 -25 33 0 39 5 47
22 33 11 -9 14 -9 14 1z m1755 1 c3 -5 2 -12 -3 -15 -5 -3 -9 1 -9 9 0 17 3
19 12 6z m-3554 -24 c-10 -9 -11 -8 -5 6 3 10 9 15 12 12 3 -3 0 -11 -7 -18z
m1289 3 c0 -5 -2 -10 -4 -10 -3 0 -8 5 -11 10 -3 6 -1 10 4 10 6 0 11 -4 11
-10z m-13 -32 c-19 -12 -26 -9 -24 11 1 15 4 17 19 8 13 -8 14 -13 5 -19z
m-60 0 c-3 -8 -6 -5 -6 6 -1 11 2 17 5 13 3 -3 4 -12 1 -19z m-1532 -28 c-3
-5 -12 -10 -18 -10 -7 0 -6 4 3 10 19 12 23 12 15 0z m667 -14 c7 4 8 2 4 -5
-10 -15 -26 -4 -25 17 1 15 2 15 6 -1 2 -9 9 -14 15 -11z m-196 -11 c0 -14 -1
-25 -1 -25 -1 0 -10 10 -21 22 -10 12 -14 18 -7 15 6 -4 14 -3 18 3 9 15 11
13 11 -15z m603 2 c0 -9 -2 -8 -6 1 -2 6 -10 9 -15 6 -7 -4 -8 -2 -4 5 9 13
26 5 25 -12z m-1109 3 c0 -5 -2 -10 -4 -10 -3 0 -8 5 -11 10 -3 6 -1 10 4 10
6 0 11 -4 11 -10z m51 1 c-10 -7 -11 -13 -1 -32 10 -21 10 -22 -3 -7 -8 10
-18 14 -22 10 -4 -4 -2 3 4 16 6 12 17 22 24 22 8 0 8 -3 -2 -9z m4167 -10
c-7 -9 -13 -18 -15 -20 -1 -2 -1 5 0 16 0 11 7 20 14 20 10 0 10 -4 1 -16z
m-2361 -16 c0 -8 -4 -12 -9 -9 -5 3 -6 10 -3 15 9 13 12 11 12 -6z m53 10 c0
-1 -10 -10 -22 -21 -14 -12 -18 -13 -10 -3 6 9 10 18 7 21 -3 2 2 5 10 5 8 0
15 -1 15 -2z m-1896 -21 c3 -8 2 -12 -4 -9 -6 3 -10 10 -10 16 0 14 7 11 14
-7z m1090 1 c-4 -8 -11 -12 -16 -9 -6 4 -5 10 3 15 19 12 19 11 13 -6z m3077
-2 c13 -16 12 -17 -3 -4 -10 7 -18 15 -18 17 0 8 8 3 21 -13z m-3481 -1 c0 -4
-9 -8 -19 -8 -11 0 -17 4 -15 8 7 10 34 10 34 0z m1560 -26 c0 -2 -8 -10 -17
-17 -16 -13 -17 -12 -4 4 13 16 21 21 21 13z m664 -18 c-3 -4 0 -8 5 -8 6 0
11 5 11 12 0 6 3 9 6 6 3 -4 0 -17 -7 -30 -17 -29 -17 -41 -4 -50 6 -5 5 -8
-4 -8 -11 0 -11 -3 -1 -15 10 -12 10 -15 0 -15 -9 0 -10 -3 -1 -14 8 -10 8
-16 -3 -25 -11 -9 -16 -9 -21 0 -4 6 -4 14 1 18 17 12 14 40 -6 54 -20 14 -20
15 -3 21 16 7 16 9 3 19 -8 7 -20 19 -27 27 -10 13 -7 16 22 16 18 0 31 -4 29
-8z m-2169 -27 c9 -19 11 -32 5 -36 -9 -6 -14 7 -11 27 0 4 -5 6 -12 4 -6 -1
-9 -1 -4 1 4 3 7 9 7 14 0 6 -5 7 -12 3 -7 -4 -8 -3 -4 4 10 17 14 15 31 -17z
m35 14 c-14 -17 -30 -20 -30 -6 0 5 8 12 18 14 9 3 19 5 21 6 2 0 -2 -6 -9
-14z m1490 11 c0 -2 -8 -10 -17 -17 -16 -13 -17 -12 -4 4 13 16 21 21 21 13z
m-63 -22 c-3 -3 -12 -4 -19 -1 -8 3 -5 6 6 6 11 1 17 -2 13 -5z m482 -7 c8
-10 7 -14 -2 -14 -8 0 -14 6 -14 14 0 7 1 13 2 13 2 0 8 -6 14 -13z m-1482
-14 c0 -9 -4 -10 -14 -2 -7 6 -13 12 -13 14 0 1 6 2 13 2 8 0 14 -6 14 -14z
m1520 2 c0 -8 -4 -12 -9 -9 -5 3 -6 10 -3 15 9 13 12 11 12 -6z m-1997 -15 c0
-5 -2 -10 -4 -10 -3 0 -8 5 -11 10 -3 6 -1 10 4 10 6 0 11 -4 11 -10z m-45
-71 c2 -33 1 -34 -33 -34 -33 1 -35 4 -37 37 -3 35 -2 35 33 33 33 -1 36 -4
37 -36z m700 31 c-3 -5 1 -10 10 -10 9 0 14 4 11 8 -3 5 2 9 10 9 10 0 11 -4
4 -11 -12 -12 -14 -29 -2 -23 4 3 8 -5 8 -18 2 -20 -2 -23 -32 -20 -19 1 -38
6 -42 10 -4 4 2 5 14 1 15 -4 21 -2 21 9 0 8 -7 14 -15 13 -8 -2 -16 5 -17 15
-2 9 1 15 5 12 5 -3 11 -1 15 5 3 5 8 10 11 10 3 0 2 -4 -1 -10z m1425 0 c0
-5 -5 -10 -11 -10 -6 0 -1 -9 12 -19 14 -11 26 -15 30 -9 4 6 8 4 11 -4 4 -10
-11 -13 -68 -13 -54 -1 -74 3 -74 12 0 7 5 13 10 13 6 0 10 -5 10 -11 0 -8 5
-8 15 1 11 9 15 9 15 1 0 -8 4 -8 14 1 8 7 14 15 14 18 -1 19 3 30 12 30 6 0
10 -4 10 -10z m-1786 -102 c-3 -5 -10 -6 -15 -3 -5 3 -6 -1 -3 -10 6 -14 8
-14 21 2 8 10 12 13 9 6 -4 -7 1 -9 13 -6 14 3 19 0 17 -11 -1 -9 -6 -15 -12
-14 -5 2 -8 6 -7 10 2 4 -4 5 -12 2 -8 -4 -13 -10 -10 -14 3 -5 -2 -7 -12 -6
-19 3 -25 44 -9 62 12 13 29 -3 20 -18z m43 16 c0 -15 -30 -11 -35 4 -2 6 5
10 16 9 10 0 19 -6 19 -13z m-300 -34 c0 -21 -3 -37 -7 -35 -6 4 -7 60 -1 73
5 10 8 -4 8 -38z m-578 2 l20 -29 -26 2 c-20 1 -26 7 -29 28 -3 35 9 34 35 -1z
m134 -57 c-3 -9 -8 -14 -10 -11 -3 3 -2 9 2 15 9 16 15 13 8 -4z m3602 5 c4
-6 -1 -7 -11 -3 -13 5 -15 3 -9 -7 5 -9 4 -11 -4 -6 -6 4 -9 12 -6 17 8 12 22
12 30 -1z m-3646 -23 c0 -9 -2 -8 -6 1 -2 6 -10 9 -15 6 -7 -4 -8 -2 -4 5 9
13 26 5 25 -12z m1531 13 c0 -5 -7 -7 -15 -4 -8 4 -15 8 -15 10 0 2 7 4 15 4
8 0 15 -4 15 -10z m1669 -16 c-9 -11 -9 -14 1 -14 8 0 11 -3 7 -6 -3 -3 -14
-1 -24 4 -17 10 -17 11 -1 17 10 4 15 12 11 18 -3 6 -1 7 6 3 9 -6 9 -11 0
-22z m-1698 -14 c5 0 9 -5 9 -11 0 -8 -5 -8 -15 1 -8 7 -14 20 -14 29 1 13 2
13 6 -1 2 -10 9 -18 14 -18z m2107 -1 c-3 -8 -7 -3 -11 10 -4 17 -3 21 5 13 5
-5 8 -16 6 -23z m-422 -33 c-1 -6 -9 -11 -17 -14 -11 -3 -11 -2 -1 6 11 7 8
14 -12 30 -14 11 -26 23 -26 27 0 3 13 -4 29 -17 17 -13 29 -27 27 -32z m484
41 c0 -8 -3 -16 -6 -20 -8 -8 -34 3 -34 15 0 6 8 4 17 -3 15 -12 16 -12 10 4
-3 9 -2 17 3 17 6 0 10 -6 10 -13z m-2733 -4 c-4 -3 0 -15 10 -25 9 -11 11
-18 5 -18 -7 0 -12 6 -12 13 0 8 -4 7 -10 -3 -9 -13 -10 -13 -10 0 0 13 -1 13
-10 0 -6 -9 -10 -10 -10 -3 0 12 27 43 37 43 4 0 3 -3 0 -7z m525 -15 c-7 -7
-12 -8 -12 -2 0 14 12 26 19 19 2 -3 -1 -11 -7 -17z m-1491 -21 c-10 -9 -11
-8 -5 6 3 10 9 15 12 12 3 -3 0 -11 -7 -18z m49 3 c8 -5 11 -10 5 -10 -5 0
-17 5 -25 10 -8 5 -10 10 -5 10 6 0 17 -5 25 -10z m1470 0 c0 -5 -4 -10 -10
-10 -5 0 -10 5 -10 10 0 6 5 10 10 10 6 0 10 -4 10 -10z m-267 -45 c-4 -11 -1
-13 11 -9 9 3 16 11 16 17 0 6 2 8 5 5 3 -3 3 -12 0 -21 -9 -22 -40 -14 -41
11 -1 12 2 19 7 16 4 -2 6 -11 2 -19z m622 5 c-3 -5 -12 -10 -18 -10 -7 0 -6
4 3 10 19 12 23 12 15 0z m77 -4 c3 5 3 4 2 -3 -2 -6 4 -17 12 -24 13 -10 14
-8 10 13 -4 26 6 31 31 15 6 -4 13 -4 16 0 2 5 2 1 0 -7 -2 -11 1 -10 11 3 12
16 13 15 11 -15 -4 -48 -4 -48 -15 -48 -12 0 -9 22 5 33 6 5 1 7 -10 5 -11 -2
-20 -10 -20 -18 0 -9 -11 -15 -32 -16 -19 -1 -31 4 -30 10 1 6 -7 10 -18 9
-11 -1 -14 0 -7 3 6 3 9 11 5 17 -3 7 6 1 20 -12 15 -14 29 -22 32 -19 3 2 -6
15 -20 28 -14 13 -25 28 -25 34 0 6 4 5 9 -3 5 -7 11 -9 13 -5z m117 -15 c-7
-2 -6 -7 2 -13 11 -7 11 -11 1 -15 -6 -2 -9 -10 -6 -15 4 -6 3 -8 -3 -5 -5 3
-9 16 -7 29 1 13 3 30 3 38 1 13 2 13 11 0 6 -10 6 -16 -1 -19z m51 21 c0 -4
-9 -8 -20 -9 -11 -1 -20 2 -20 5 0 4 9 8 20 9 11 1 20 -2 20 -5z m248 -14 c6
-13 11 -17 11 -10 1 6 6 12 12 12 8 0 7 -5 -1 -15 -7 -9 -22 -13 -34 -10 -12
3 -15 2 -8 -1 6 -3 9 -11 6 -16 -4 -6 -2 -8 4 -5 16 11 40 -3 37 -21 -1 -9 2
-23 7 -29 7 -9 5 -15 -7 -19 -11 -5 -13 -9 -5 -14 6 -4 -10 -6 -36 -5 -36 1
-48 5 -50 18 -1 9 2 19 7 23 16 10 9 23 -10 19 -11 -2 -18 2 -16 8 12 46 19
57 34 53 9 -3 23 -1 31 4 10 6 11 10 3 10 -7 0 -13 5 -13 10 0 18 17 10 28
-12z m1222 12 c0 -5 -5 -10 -11 -10 -5 0 -7 5 -4 10 3 6 8 10 11 10 2 0 4 -4
4 -10z m-3435 -21 c-5 -16 -4 -19 5 -14 9 6 11 4 5 -4 -10 -18 -27 2 -19 22 9
25 17 21 9 -4z m1740 11 c-3 -5 -1 -10 6 -10 7 0 10 -3 6 -6 -9 -9 -28 6 -22
17 4 5 8 9 11 9 3 0 2 -4 -1 -10z m241 -5 c-5 -14 18 -45 34 -45 5 0 15 7 23
15 12 11 17 12 21 2 3 -6 3 -2 1 10 -3 12 -1 24 5 28 5 3 10 3 11 -2 0 -4 2
-18 3 -30 2 -13 -2 -19 -7 -16 -6 4 -8 -1 -3 -12 5 -13 3 -15 -6 -8 -7 5 -41
8 -74 8 -59 -2 -62 -1 -60 22 0 12 4 24 9 24 4 1 11 2 16 3 5 0 13 4 17 9 12
11 17 8 10 -8z m61 -2 c2 -5 -3 -16 -12 -23 -13 -11 -19 -11 -33 3 -11 12 -12
17 -4 17 7 0 11 4 8 8 -3 5 5 8 16 7 12 -1 23 -6 25 -12z m-964 -6 c3 -8 2
-20 -3 -26 -5 -9 -7 -4 -7 13 0 29 2 32 10 13z m2327 3 c0 -5 -4 -10 -10 -10
-5 0 -10 5 -10 10 0 6 5 10 10 10 6 0 10 -4 10 -10z m-1767 -15 c-3 -9 -8 -14
-10 -11 -3 3 -2 9 2 15 9 16 15 13 8 -4z m107 -12 c0 -3 -6 -3 -12 0 -7 2 -22
0 -33 -5 -19 -9 -19 -8 -2 6 17 13 47 12 47 -1z m1695 6 c11 -16 1 -19 -13 -3
-7 8 -8 14 -3 14 5 0 13 -5 16 -11z m-3377 -54 c-3 -3 -9 2 -12 12 -6 14 -5
15 5 6 7 -7 10 -15 7 -18z m1283 5 c6 0 8 4 5 8 -2 4 6 8 19 8 13 0 21 -4 19
-8 -3 -4 0 -8 5 -8 6 0 11 5 11 11 0 5 5 7 12 3 9 -6 9 -9 0 -12 -10 -3 -10
-7 -1 -19 7 -8 8 -13 3 -11 -5 2 -9 -1 -9 -7 0 -5 4 -9 8 -7 5 1 6 -2 2 -8 -5
-8 -11 -7 -21 1 -11 9 -11 15 -3 25 6 8 8 14 3 14 -13 0 -36 -16 -35 -24 3
-24 0 -28 -14 -16 -8 7 -12 17 -8 23 4 6 0 8 -9 4 -11 -4 -15 -1 -13 11 2 9 4
22 5 27 1 6 4 4 7 -2 2 -7 9 -13 14 -13z m1946 0 c1 -11 -2 -22 -6 -24 -6 -4
-7 26 -2 42 3 8 7 -1 8 -18z m47 -5 c-4 -8 -10 -12 -15 -9 -5 3 -9 -2 -9 -11
0 -9 4 -13 10 -10 6 4 7 -1 3 -11 -4 -10 -8 -13 -10 -7 -3 7 -12 9 -21 6 -13
-3 -14 -2 -4 4 7 6 14 19 15 30 1 14 6 19 16 15 10 -4 12 -1 6 8 -5 8 -4 11 3
6 6 -4 9 -13 6 -21z m-3257 -26 c0 -21 -3 -26 -9 -16 -4 9 -5 22 -2 31 9 23
11 20 11 -15z m2000 16 c0 -8 -4 -12 -9 -9 -5 3 -6 10 -3 15 9 13 12 11 12 -6z
m20 -17 c-3 -8 -6 -5 -6 6 -1 11 2 17 5 13 3 -3 4 -12 1 -19z m30 0 c-3 -8 -6
-5 -6 6 -1 11 2 17 5 13 3 -3 4 -12 1 -19z m-2072 -18 c3 -5 1 -10 -4 -10 -6
0 -11 5 -11 10 0 6 2 10 4 10 3 0 8 -4 11 -10z m3163 -39 c-2 -11 4 -15 18
-14 12 1 21 -4 21 -11 0 -12 -22 -14 -69 -7 -5 1 -6 11 -4 24 5 27 3 24 21 24
8 0 14 -7 13 -16z m-2258 3 c0 -8 -19 -13 -24 -6 -3 5 1 9 9 9 8 0 15 -2 15
-3z m1560 -20 c0 -30 -11 -30 -38 -1 l-21 22 29 1 c25 1 30 -2 30 -22z m-2330
1 c-7 -9 -15 -13 -17 -11 -7 7 7 26 19 26 6 0 6 -6 -2 -15z m2384 -7 c-3 -4
-11 -5 -19 -1 -21 7 -19 12 4 10 11 0 18 -5 15 -9z m-1334 -83 c0 -8 -3 -16
-7 -18 -5 -3 -8 5 -8 18 0 13 3 21 8 18 4 -2 7 -10 7 -18z m56 3 c-3 -24 -28
-32 -32 -10 -1 7 0 8 3 2 5 -12 24 -14 22 -2 -2 14 1 32 6 32 3 0 3 -10 1 -22z
m59 12 c-9 -14 15 -23 29 -10 16 12 27 -5 18 -28 -3 -10 -8 -10 -19 -1 -10 9
-17 9 -25 1 -6 -6 -17 -8 -25 -5 -12 5 -14 1 -9 -14 6 -18 3 -21 -19 -19 -21
1 -23 3 -10 12 8 6 12 14 8 17 -3 4 -1 7 6 7 7 0 9 5 6 10 -11 18 1 35 24 37
12 1 19 -2 16 -7z m-105 -50 c-8 -5 -19 -10 -25 -10 -5 0 -3 5 5 10 8 5 20 10
25 10 6 0 3 -5 -5 -10z m30 -5 c0 -2 -10 -9 -22 -15 -22 -11 -22 -10 -4 4 21
17 26 19 26 11z m-840 -37 c0 6 9 12 20 12 16 0 20 -7 20 -30 0 -16 -4 -30
-10 -30 -5 0 -9 6 -7 13 1 6 -5 12 -13 12 -16 0 -30 14 -30 30 0 6 5 3 10 -5
6 -10 10 -11 10 -2z m2034 -176 c3 -5 -1 -9 -9 -9 -8 0 -12 4 -9 9 3 4 7 8 9
8 2 0 6 -4 9 -8z m-1574 -37 c0 -5 -5 -3 -10 5 -5 8 -10 20 -10 25 0 6 5 3 10
-5 5 -8 10 -19 10 -25z m-29 -18 c-10 -9 -11 -8 -5 6 3 10 9 15 12 12 3 -3 0
-11 -7 -18z m321 -49 c-14 -14 -16 -28 -3 -28 5 0 13 9 16 21 4 11 9 18 12 16
2 -3 -1 -15 -7 -27 -8 -15 -17 -19 -31 -15 -11 4 -19 2 -19 -4 0 -6 5 -11 10
-11 6 0 10 -5 10 -12 0 -8 -6 -6 -17 5 -16 16 -15 18 7 42 13 14 26 25 29 25
3 0 0 -5 -7 -12z m1012 1 c-2 -4 4 -14 14 -21 18 -13 37 -38 29 -38 -6 0 -39
32 -54 51 -10 13 -10 16 2 16 8 0 12 -4 9 -8z m-15 -31 c17 -18 28 -34 26 -36
-4 -4 -14 5 -49 46 -29 34 -11 26 23 -10z m-15 -38 c-6 -5 -24 21 -24 34 0 6
6 1 14 -10 8 -10 12 -21 10 -24z m-960 15 c-4 -8 -11 -12 -16 -9 -6 4 -5 10 3
15 19 12 19 11 13 -6z"/>
<path d="M1319 4507 c6 -8 9 -17 6 -21 -3 -3 0 -2 6 3 12 10 4 31 -13 31 -7 0
-7 -4 1 -13z"/>
<path d="M867 3223 c-10 -9 -9 -33 1 -33 4 0 8 9 8 20 0 23 0 22 -9 13z"/>
<path d="M941 3123 c0 -12 4 -25 9 -28 6 -4 8 -11 5 -16 -4 -5 -1 -9 4 -9 13
0 14 13 2 26 -5 5 -11 18 -14 29 -4 18 -5 18 -6 -2z"/>
<path d="M910 3100 c-11 -7 -11 -10 -2 -10 7 0 10 -4 7 -10 -4 -6 1 -7 11 -3
11 4 13 8 6 11 -7 2 -10 8 -6 13 7 11 3 11 -16 -1z"/>
<path d="M934 3062 c3 -5 0 -13 -6 -15 -9 -4 -10 -6 -1 -6 17 -1 25 16 12 25
-7 4 -9 3 -5 -4z"/>
<path d="M956 3027 c3 -10 9 -15 12 -12 3 3 0 11 -7 18 -10 9 -11 8 -5 -6z"/>
<path d="M940 3010 c6 -11 15 -20 20 -20 6 0 2 9 -7 20 -10 11 -19 20 -21 20
-1 0 2 -9 8 -20z"/>
<path d="M900 3016 c0 -2 7 -7 16 -10 8 -3 12 -2 9 4 -6 10 -25 14 -25 6z"/>
<path d="M1198 2753 c6 -2 9 -10 6 -15 -4 -7 -2 -8 5 -4 13 9 5 26 -12 25 -9
0 -8 -2 1 -6z"/>
<path d="M646 2678 c3 -4 -2 -8 -10 -8 -9 0 -16 -5 -16 -10 0 -7 7 -7 20 0 11
6 25 8 30 5 5 -3 12 0 16 6 4 8 3 9 -4 5 -7 -4 -12 -3 -12 2 0 5 -7 9 -15 9
-8 0 -12 -4 -9 -9z"/>
<path d="M655 2600 c-3 -5 -1 -10 4 -10 6 0 11 5 11 10 0 6 -2 10 -4 10 -3 0
-8 -4 -11 -10z"/>
<path d="M620 2545 c0 -2 6 -8 13 -14 10 -8 14 -7 14 2 0 8 -6 14 -14 14 -7 0
-13 -1 -13 -2z"/>
<path d="M660 2545 c0 -2 6 -8 13 -14 10 -8 14 -7 14 2 0 8 -6 14 -14 14 -7 0
-13 -1 -13 -2z"/>
<path d="M1740 2578 c0 -4 5 -8 10 -8 6 0 10 -5 10 -11 0 -5 -6 -7 -12 -3 -9
5 -8 2 1 -9 13 -16 15 -16 32 -1 16 15 18 34 3 34 -3 0 -3 -4 1 -9 3 -5 1 -12
-5 -16 -9 -5 -14 6 -12 26 1 3 -6 6 -14 6 -7 0 -14 -4 -14 -9z"/>
<path d="M1379 2308 c-6 -15 -4 -58 3 -59 32 -5 41 -2 44 14 1 11 0 16 -3 13
-9 -9 -44 14 -38 25 4 5 4 9 1 9 -3 0 -6 -1 -7 -2z m41 -52 c0 -10 -30 0 -34
11 -4 11 -1 11 14 3 11 -6 20 -12 20 -14z"/>
<path d="M290 1721 c0 -6 4 -12 8 -15 5 -3 9 1 9 9 0 8 -4 15 -9 15 -4 0 -8
-4 -8 -9z"/>
<path d="M2430 1745 c0 -5 5 -17 10 -25 5 -8 10 -10 10 -5 0 6 -5 17 -10 25
-5 8 -10 11 -10 5z"/>
<path d="M3145 1609 c-4 -6 -4 -13 -1 -16 3 -4 6 -1 6 6 0 7 5 9 12 5 7 -4 8
-3 4 4 -9 15 -13 15 -21 1z"/>
<path d="M809 1476 c-1 -1 -2 -13 -3 -29 -3 -29 17 -56 29 -37 3 6 12 7 18 3
7 -4 7 0 -1 10 -8 9 -17 16 -20 15 -21 -2 -23 4 -9 20 15 16 15 19 2 19 -8 0
-15 -1 -16 -1z m31 -52 c0 -8 -19 -13 -24 -6 -3 5 1 9 9 9 8 0 15 -2 15 -3z"/>
<path d="M915 1369 c-4 -6 -5 -12 -2 -15 2 -3 7 2 10 11 7 17 1 20 -8 4z"/>
<path d="M995 1163 c1 -22 6 -27 28 -28 l28 -2 -27 29 c-15 15 -28 28 -29 28
-1 0 -1 -12 0 -27z m24 -6 c8 -10 7 -14 -2 -14 -8 0 -14 6 -14 14 0 7 1 13 2
13 2 0 8 -6 14 -13z"/>
<path d="M850 1455 c0 -2 6 -8 13 -14 10 -8 14 -7 14 2 0 8 -6 14 -14 14 -7 0
-13 -1 -13 -2z"/>
<path d="M1950 1365 c-20 -24 -6 -28 15 -5 10 11 13 20 8 20 -6 0 -16 -7 -23
-15z"/>
<path d="M1460 1325 c0 -7 30 -13 34 -7 3 4 -4 9 -15 9 -10 1 -19 0 -19 -2z"/>
<path d="M1553 1265 c0 -8 4 -12 9 -9 5 3 6 10 3 15 -9 13 -12 11 -12 -6z"/>
<path d="M2675 1251 c0 -15 5 -28 12 -28 8 0 9 6 3 17 -5 10 -7 20 -4 23 3 3
1 7 -3 10 -5 3 -9 -7 -8 -22z"/>
<path d="M3445 1079 c10 -10 22 -16 27 -13 12 8 -6 27 -28 30 -14 2 -14 0 1
-17z"/>
<path d="M3455 1041 c-3 -5 -2 -12 3 -15 5 -3 9 1 9 9 0 17 -3 19 -12 6z"/>
<path d="M1184 984 c1 -7 8 -19 16 -28 15 -19 28 -10 34 20 3 16 -1 20 -24 19
-15 0 -27 -5 -26 -11z m38 -12 c-7 -2 -9 -9 -5 -15 4 -7 -1 -6 -11 2 -13 11
-14 16 -4 22 6 4 17 5 22 2 6 -4 5 -8 -2 -11z"/>
<path d="M1953 965 c0 -8 6 -16 14 -19 11 -4 11 -1 3 14 -13 24 -17 25 -17 5z"/>
<path d="M3346 962 c-3 -5 1 -9 9 -9 8 0 15 4 15 9 0 4 -4 8 -9 8 -6 0 -12 -4
-15 -8z"/>
<path d="M724 882 c0 -10 6 -19 13 -19 8 0 9 6 2 19 -5 10 -11 18 -12 18 -2 0
-3 -8 -3 -18z"/>
<path d="M2796 711 c-4 -6 -2 -11 5 -11 9 0 9 -3 0 -14 -9 -11 -9 -16 1 -22 7
-4 10 -4 6 1 -4 4 -3 14 4 22 8 10 8 17 1 24 -8 8 -13 7 -17 0z"/>
<path d="M3124 682 c4 -7 2 -12 -3 -12 -6 0 -11 -6 -11 -14 0 -9 7 -13 20 -11
23 4 26 -5 8 -23 -6 -6 -13 -18 -14 -25 -2 -17 43 -16 71 2 15 9 16 11 3 7
-13 -4 -23 5 -38 34 -11 21 -25 42 -31 46 -8 4 -9 3 -5 -4z m33 -59 c-4 -3 1
-11 10 -18 14 -10 13 -12 -8 -9 -13 1 -26 3 -28 3 -5 1 20 31 27 31 3 0 2 -3
-1 -7z"/>
<path d="M3172 641 c2 -7 7 -12 11 -12 12 1 9 15 -3 20 -7 2 -11 -2 -8 -8z"/>
<path d="M2913 693 c4 -3 3 -11 -3 -17 -6 -8 -3 -12 10 -12 15 0 16 4 9 18 -5
10 -13 18 -16 18 -3 0 -3 -3 0 -7z"/>
<path d="M2979 693 c-13 -16 -12 -17 4 -4 16 13 21 21 13 21 -2 0 -10 -8 -17
-17z"/>
<path d="M2320 625 c-9 -10 -9 -15 -1 -15 6 0 11 5 11 11 0 5 5 7 12 3 7 -4 8
-3 4 4 -9 15 -11 15 -26 -3z"/>
<path d="M4167 519 c7 -7 15 -10 18 -7 3 3 -2 9 -12 12 -14 6 -15 5 -6 -5z"/>
<path d="M3450 535 c0 -2 6 -8 13 -14 10 -8 14 -7 14 2 0 8 -6 14 -14 14 -7 0
-13 -1 -13 -2z"/>
<path d="M2301 431 c-10 -6 -9 -10 3 -14 8 -3 18 -2 21 3 8 13 -9 20 -24 11z"/>
<path d="M765 5072 c-15 -10 -16 -29 -2 -29 7 0 13 9 13 19 0 10 0 18 -1 18 0
0 -4 -4 -10 -8z"/>
<path d="M2130 4920 c0 -5 5 -10 11 -10 5 0 7 5 4 10 -3 6 -8 10 -11 10 -2 0
-4 -4 -4 -10z"/>
<path d="M469 4903 c-13 -16 -12 -17 4 -4 16 13 21 21 13 21 -2 0 -10 -8 -17
-17z"/>
<path d="M2145 4880 c-3 -6 1 -7 9 -4 18 7 21 14 7 14 -6 0 -13 -4 -16 -10z"/>
<path d="M2106 4858 c3 -5 10 -6 15 -3 13 9 11 12 -6 12 -8 0 -12 -4 -9 -9z"/>
<path d="M3145 4860 c-3 -6 1 -7 9 -4 18 7 21 14 7 14 -6 0 -13 -4 -16 -10z"/>
<path d="M1819 4824 c6 -12 7 -25 3 -30 -4 -5 0 -3 8 4 16 14 34 16 26 3 -9
-14 26 -23 38 -10 8 9 8 10 -2 4 -8 -4 -19 0 -27 11 -7 11 -17 16 -21 12 -4
-4 -13 0 -21 10 -13 15 -13 15 -4 -4z"/>
<path d="M1874 4828 c3 -15 26 -23 26 -8 0 6 -4 9 -9 6 -5 -4 -12 -1 -14 4 -3
6 -4 5 -3 -2z"/>
<path d="M3420 4830 c-8 -5 -12 -12 -9 -15 4 -3 12 1 19 10 14 17 11 19 -10 5z"/>
<path d="M3451 4833 c-1 -18 13 -23 29 -11 12 8 12 9 -2 5 -9 -3 -19 -1 -22 6
-3 9 -5 9 -5 0z"/>
<path d="M3472 4801 c-11 -7 -11 -9 0 -14 9 -3 15 1 15 9 0 8 -1 14 -1 14 -1
0 -7 -4 -14 -9z"/>
<path d="M3430 4780 c0 -5 5 -10 10 -10 6 0 10 5 10 10 0 6 -4 10 -10 10 -5 0
-10 -4 -10 -10z"/>
<path d="M2365 4730 c-4 -6 -11 -7 -17 -4 -7 4 -8 2 -4 -4 7 -12 36 -5 36 9 0
12 -7 11 -15 -1z"/>
<path d="M2403 4725 c-11 -11 -8 -13 14 -12 14 1 28 8 29 15 1 7 0 8 -3 2 -2
-5 -9 -10 -14 -10 -6 0 -7 5 -4 10 9 15 -8 11 -22 -5z"/>
<path d="M3026 4725 c-2 -7 1 -18 7 -24 6 -6 7 -11 1 -11 -5 0 -10 -9 -10 -19
0 -15 3 -17 13 -9 7 6 11 14 8 18 -3 5 -1 11 4 14 5 4 13 1 17 -5 4 -7 3 -9
-2 -6 -6 3 -10 -2 -11 -12 -1 -13 6 -18 26 -18 27 0 28 3 27 41 -1 40 -1 41
-38 42 -21 1 -39 -4 -42 -11z m69 -31 c1 -22 -4 -30 -17 -30 -12 0 -14 4 -7
12 6 7 4 16 -6 24 -8 7 -15 9 -15 6 0 -4 -5 -4 -10 -1 -17 11 -2 22 27 20 23
-1 27 -5 28 -31z"/>
<path d="M3060 4715 c0 -2 6 -8 13 -14 10 -8 14 -7 14 2 0 8 -6 14 -14 14 -7
0 -13 -1 -13 -2z"/>
<path d="M819 4713 c-13 -17 -13 -17 6 -3 11 8 22 16 24 17 2 2 0 3 -6 3 -6 0
-17 -8 -24 -17z"/>
<path d="M2830 4721 c0 -6 4 -12 8 -15 5 -3 9 1 9 9 0 8 -4 15 -9 15 -4 0 -8
-4 -8 -9z"/>
<path d="M2955 4720 c3 -5 11 -10 16 -10 6 0 7 5 4 10 -3 6 -11 10 -16 10 -6
0 -7 -4 -4 -10z"/>
<path d="M2919 4718 c-4 -12 -5 -57 0 -53 6 6 10 55 4 55 -1 0 -3 -1 -4 -2z"/>
<path d="M840 4695 c-7 -9 -11 -17 -9 -20 3 -2 10 5 17 15 14 24 10 26 -8 5z"/>
<path d="M2445 4700 c-3 -5 -2 -10 4 -10 5 0 13 5 16 10 3 6 2 10 -4 10 -5 0
-13 -4 -16 -10z"/>
<path d="M2517 4688 c19 -21 31 -25 14 -5 -6 8 -9 16 -6 19 3 2 -2 5 -10 5
-13 0 -13 -3 2 -19z"/>
<path d="M2546 4700 c5 -8 9 -18 9 -22 0 -3 3 -9 7 -13 3 -4 5 0 4 9 -1 9 -8
22 -16 29 -10 10 -11 9 -4 -3z"/>
<path d="M2595 4699 c-3 -4 2 -6 10 -5 21 3 28 13 10 13 -9 0 -18 -4 -20 -8z"/>
<path d="M2866 4702 c-3 -5 1 -9 9 -9 8 0 15 4 15 9 0 4 -4 8 -9 8 -6 0 -12
-4 -15 -8z"/>
<path d="M2990 4700 c0 -5 5 -10 10 -10 6 0 10 5 10 10 0 6 -4 10 -10 10 -5 0
-10 -4 -10 -10z"/>
<path d="M873 4675 c0 -8 4 -12 9 -9 5 3 6 10 3 15 -9 13 -12 11 -12 -6z"/>
<path d="M2465 4679 c-4 -6 -13 -8 -20 -5 -8 3 -19 -2 -25 -10 -9 -10 -9 -14
-1 -14 6 0 11 5 11 12 0 9 3 9 12 0 14 -14 32 -16 23 -3 -10 16 15 23 33 9 15
-12 16 -11 3 5 -15 20 -27 22 -36 6z"/>
<path d="M2955 4679 c-11 -16 -1 -19 13 -3 7 8 8 14 3 14 -5 0 -13 -5 -16 -11z"/>
<path d="M3710 4680 c0 -5 5 -10 11 -10 5 0 7 5 4 10 -3 6 -8 10 -11 10 -2 0
-4 -4 -4 -10z"/>
<path d="M2970 4659 c0 -5 5 -7 10 -4 6 3 10 8 10 11 0 2 -4 4 -10 4 -5 0 -10
-5 -10 -11z"/>
<path d="M813 4645 c0 -8 4 -12 9 -9 5 3 6 10 3 15 -9 13 -12 11 -12 -6z"/>
<path d="M253 4638 c-10 -13 -14 -53 -5 -43 3 3 15 -2 28 -10 20 -13 23 -12
29 3 11 25 13 52 3 46 -5 -3 -7 -13 -6 -21 2 -9 -2 -18 -9 -20 -13 -5 -11 26
3 50 5 8 2 7 -10 -2 -9 -8 -15 -20 -12 -28 6 -15 -10 -18 -19 -3 -4 6 -1 17 5
25 7 8 10 15 7 15 -2 0 -9 -6 -14 -12z"/>
<path d="M1354 4638 c-4 -7 -4 -10 1 -6 4 4 15 2 24 -5 14 -11 14 -10 2 6 -16
20 -18 21 -27 5z"/>
<path d="M3335 4621 c-6 -11 13 -26 22 -17 4 3 1 6 -6 6 -7 0 -9 5 -6 10 3 6
4 10 1 10 -3 0 -7 -4 -11 -9z"/>
<path d="M1360 4600 c-9 -6 -10 -10 -3 -10 6 0 15 5 18 10 8 12 4 12 -15 0z"/>
<path d="M1391 4587 c-13 -21 -12 -21 5 -5 10 10 16 20 13 22 -3 3 -11 -5 -18
-17z"/>
<path d="M3376 4595 c4 -8 8 -15 10 -15 2 0 4 7 4 15 0 8 -4 15 -10 15 -5 0
-7 -7 -4 -15z"/>
<path d="M2027 4578 c-3 -8 5 -14 20 -14 13 -1 23 -1 21 0 -2 1 -10 7 -19 14
-13 10 -18 10 -22 0z"/>
<path d="M3325 4580 c-16 -7 -17 -9 -3 -9 9 -1 20 4 23 9 7 11 7 11 -20 0z"/>
<path d="M3356 4573 c-6 -14 -5 -15 5 -6 7 7 10 15 7 18 -3 3 -9 -2 -12 -12z"/>
<path d="M1749 4545 c-6 -2 -4 -57 2 -67 7 -10 9 -10 9 2 0 13 1 13 10 0 9
-13 10 -13 10 0 0 13 1 13 10 0 9 -13 10 -13 10 0 0 12 2 12 9 2 5 -8 8 1 7
25 -1 37 -2 39 -33 39 -18 0 -33 0 -34 -1z m56 -30 c0 -13 -8 -19 -25 -20 -20
-1 -26 3 -26 20 0 17 6 21 26 20 17 -1 25 -7 25 -20z"/>
<path d="M1764 4518 c-3 -4 -4 -8 -2 -9 25 -6 35 -5 35 5 0 14 -25 17 -33 4z"/>
<path d="M3605 4537 c-15 -12 -16 -15 -4 -22 8 -5 11 -5 7 0 -4 4 0 14 10 21
23 18 11 18 -13 1z"/>
<path d="M3638 4523 c7 -3 16 -2 19 1 4 3 -2 6 -13 5 -11 0 -14 -3 -6 -6z"/>
<path d="M4035 4521 c9 -15 -14 -24 -30 -11 -10 8 -13 8 -11 -2 2 -19 9 -22
34 -14 22 7 31 36 11 36 -5 0 -8 -4 -4 -9z"/>
<path d="M3619 4507 c-6 -20 -5 -36 2 -31 5 3 7 10 3 15 -3 6 2 9 12 7 11 -2
22 -10 26 -18 6 -11 7 -10 5 4 -1 11 -11 20 -24 22 -13 2 -23 3 -24 1z"/>
<path d="M155 4429 c-4 -6 -5 -12 -2 -15 2 -3 7 2 10 11 7 17 1 20 -8 4z"/>
<path d="M1010 4376 c0 -2 8 -10 18 -17 15 -13 16 -12 3 4 -13 16 -21 21 -21
13z"/>
<path d="M989 4357 c6 -8 9 -16 6 -19 -3 -2 2 -5 10 -5 13 0 13 3 -2 19 -19
21 -31 25 -14 5z"/>
<path d="M4270 4338 c0 -4 4 -8 9 -8 6 0 12 4 15 8 3 5 -1 9 -9 9 -8 0 -15 -4
-15 -9z"/>
<path d="M894 4262 c4 -3 14 -7 22 -8 9 -1 13 0 10 4 -4 3 -14 7 -22 8 -9 1
-13 0 -10 -4z"/>
<path d="M4066 4258 c3 -5 -1 -8 -8 -8 -10 0 -10 -2 1 -9 10 -7 11 -9 1 -13
-10 -3 -11 -9 -2 -24 7 -12 12 -14 12 -5 0 11 3 11 17 0 11 -10 14 -10 9 -1
-4 6 -2 13 3 13 6 1 17 2 23 3 7 0 12 12 12 26 0 22 -4 25 -36 25 -20 0 -34
-3 -32 -7z m56 -5 c-10 -4 -10 -8 0 -21 10 -12 10 -14 1 -8 -7 4 -19 4 -25 -1
-7 -4 -19 -8 -26 -9 -10 -2 -11 1 -1 12 6 8 8 14 3 14 -19 0 16 16 38 17 13 0
17 -1 10 -4z"/>
<path d="M4086 4233 c-6 -14 -5 -15 5 -6 7 7 10 15 7 18 -3 3 -9 -2 -12 -12z"/>
<path d="M4473 4175 c0 -7 6 -11 14 -8 7 3 13 6 13 8 0 2 -6 5 -13 8 -8 3 -14
-1 -14 -8z"/>
<path d="M4200 4140 c-13 -8 -12 -10 3 -10 9 0 17 5 17 10 0 12 -1 12 -20 0z"/>
<path d="M4170 4131 c0 -13 39 -35 48 -27 3 3 0 6 -6 6 -6 0 -18 7 -26 16 -9
8 -16 11 -16 5z"/>
<path d="M4450 4122 c0 -4 12 -8 28 -9 23 -1 24 -1 7 7 -26 11 -35 12 -35 2z"/>
<path d="M4240 4084 c0 -13 18 -39 24 -34 2 3 -2 14 -10 24 -8 11 -14 16 -14
10z"/>
<path d="M4270 4080 c0 -5 5 -10 10 -10 6 0 10 5 10 10 0 6 -4 10 -10 10 -5 0
-10 -4 -10 -10z"/>
<path d="M110 4060 c0 -5 5 -10 10 -10 6 0 10 5 10 10 0 6 -4 10 -10 10 -5 0
-10 -4 -10 -10z"/>
<path d="M4577 4036 c-4 -10 -1 -13 8 -9 8 3 12 9 9 14 -7 12 -11 11 -17 -5z"/>
<path d="M4255 4010 c3 -5 8 -10 11 -10 2 0 4 5 4 10 0 6 -5 10 -11 10 -5 0
-7 -4 -4 -10z"/>
<path d="M1280 3246 c0 -2 8 -10 18 -17 15 -13 16 -12 3 4 -13 16 -21 21 -21
13z"/>
<path d="M1270 3221 c0 -6 4 -13 10 -16 6 -3 7 1 4 9 -7 18 -14 21 -14 7z"/>
<path d="M1374 3017 c0 -15 6 -24 18 -24 10 -1 18 2 18 6 0 4 -8 15 -18 24
-17 15 -18 15 -18 -6z"/>
<path d="M1475 2942 c3 -3 -1 -12 -7 -21 -8 -10 -4 -9 10 3 26 23 26 23 7 23
-8 0 -13 -3 -10 -5z"/>
<path d="M1510 2946 c0 -2 7 -7 16 -10 8 -3 12 -2 9 4 -6 10 -25 14 -25 6z"/>
<path d="M1499 2913 c-13 -16 -12 -17 4 -4 9 7 17 15 17 17 0 8 -8 3 -21 -13z"/>
<path d="M60 2846 c0 -2 7 -7 16 -10 8 -3 12 -2 9 4 -6 10 -25 14 -25 6z"/>
<path d="M113 2843 c4 -3 -1 -12 -11 -20 -15 -13 -15 -13 6 -3 19 9 23 30 5
30 -4 0 -3 -3 0 -7z"/>
<path d="M1035 2840 c3 -5 8 -10 11 -10 2 0 4 5 4 10 0 6 -5 10 -11 10 -5 0
-7 -4 -4 -10z"/>
<path d="M55 2800 c3 -5 8 -10 11 -10 2 0 4 5 4 10 0 6 -5 10 -11 10 -5 0 -7
-4 -4 -10z"/>
<path d="M1665 2660 c6 -8 10 -18 10 -22 0 -13 19 -4 22 10 1 8 -1 11 -4 8 -4
-3 -13 0 -21 7 -13 10 -14 9 -7 -3z"/>
<path d="M716 2591 c-3 -5 1 -11 9 -14 8 -4 12 -15 10 -27 -3 -18 -2 -20 10
-10 8 6 18 9 23 6 5 -3 9 2 9 10 0 18 -53 48 -61 35z m54 -26 c0 -2 -6 -5 -13
-8 -8 -3 -14 1 -14 8 0 7 6 11 14 8 7 -3 13 -6 13 -8z"/>
<path d="M200 2485 c-7 -8 -16 -12 -21 -10 -4 3 -7 -3 -6 -14 0 -11 5 -17 9
-15 4 3 8 1 8 -3 0 -5 8 -9 18 -10 10 -1 19 5 19 13 0 8 -6 13 -13 12 -7 -2
-12 2 -11 7 1 6 6 9 13 7 6 -1 11 5 11 13 0 19 -11 19 -27 0z"/>
<path d="M185 2416 c16 -11 16 -15 2 -43 -15 -29 -15 -31 8 -53 13 -12 22 -30
20 -41 -2 -10 0 -21 4 -23 10 -6 8 55 -3 72 -4 7 -3 19 4 27 7 9 8 15 0 20 -5
3 -10 5 -11 3 0 -2 -2 -11 -4 -21 -5 -28 -16 -34 -12 -7 2 12 10 28 18 34 16
13 25 41 9 31 -5 -3 -10 -2 -10 2 0 5 -10 9 -21 10 -20 2 -20 1 -4 -11z"/>
<path d="M173 2395 c0 -8 4 -12 9 -9 4 3 8 9 8 15 0 5 -4 9 -8 9 -5 0 -9 -7
-9 -15z"/>
<path d="M830 2399 c-13 -9 -12 -10 2 -5 10 3 20 1 23 -4 3 -5 -4 -12 -16 -15
-11 -4 -18 -9 -16 -12 11 -10 46 18 41 32 -7 18 -14 18 -34 4z"/>
<path d="M714 2360 c0 -13 4 -16 10 -10 7 7 7 13 0 20 -6 6 -10 3 -10 -10z"/>
<path d="M2033 2313 c1 -13 5 -23 10 -23 4 0 5 -6 0 -12 -15 -25 -12 -38 6
-29 9 5 23 6 32 1 12 -7 15 -1 15 34 0 37 -3 42 -23 42 -26 0 -30 -11 -7 -20
8 -3 12 -11 8 -17 -3 -6 0 -15 7 -20 10 -6 8 -8 -8 -6 -12 0 -19 5 -17 9 3 4
-2 20 -10 35 -13 25 -15 26 -13 6z"/>
<path d="M806 2214 c-5 -14 -4 -15 9 -4 17 14 19 20 6 20 -5 0 -12 -7 -15 -16z"/>
<path d="M1494 2215 c-3 -8 -3 -18 0 -24 4 -5 -4 -12 -16 -14 -21 -5 -20 -5 2
-4 20 2 24 7 22 24 -2 17 1 20 18 16 11 -3 20 -3 20 0 0 12 -42 14 -46 2z"/>
<path d="M1461 2204 c0 -11 3 -14 6 -6 3 7 2 16 -1 19 -3 4 -6 -2 -5 -13z"/>
<path d="M851 2183 c13 -16 25 -30 27 -32 1 -2 4 -2 7 0 5 6 -40 59 -50 59 -5
0 2 -12 16 -27z"/>
<path d="M868 2203 c7 -3 16 -2 19 1 4 3 -2 6 -13 5 -11 0 -14 -3 -6 -6z"/>
<path d="M822 2170 c12 -19 28 -27 28 -14 0 7 -27 34 -34 34 -4 0 -1 -9 6 -20z"/>
<path d="M215 2140 c-3 -5 -1 -10 4 -10 6 0 11 5 11 10 0 6 -2 10 -4 10 -3 0
-8 -4 -11 -10z"/>
<path d="M147 2119 c7 -7 15 -10 18 -7 3 3 -2 9 -12 12 -14 6 -15 5 -6 -5z"/>
<path d="M986 2098 c3 -5 10 -6 15 -3 13 9 11 12 -6 12 -8 0 -12 -4 -9 -9z"/>
<path d="M166 2085 c-18 -14 -18 -14 1 -12 11 0 20 7 20 14 0 7 -1 13 -1 13
-1 0 -9 -7 -20 -15z"/>
<path d="M1001 1928 c-6 -10 -9 -18 -6 -18 3 0 15 8 26 18 13 13 15 19 5 19
-7 0 -18 -9 -25 -19z"/>
<path d="M1239 1938 c-6 -20 -6 -39 0 -42 4 -3 7 6 7 20 0 20 -4 32 -7 22z"/>
<path d="M1016 1904 c-15 -14 -26 -27 -24 -29 2 -3 19 9 37 25 39 36 28 40
-13 4z"/>
<path d="M1755 1900 c-3 -5 -1 -10 4 -10 6 0 11 5 11 10 0 6 -2 10 -4 10 -3 0
-8 -4 -11 -10z"/>
<path d="M2029 1883 c-13 -16 -12 -17 4 -4 9 7 17 15 17 17 0 8 -8 3 -21 -13z"/>
<path d="M1267 1836 c-3 -8 -4 -22 -2 -32 2 -11 4 -23 4 -29 1 -5 5 -3 10 4 5
8 6 22 2 30 -5 9 -6 22 -4 29 6 17 -4 15 -10 -2z"/>
<path d="M2190 1840 c0 -3 9 -11 20 -18 13 -8 20 -8 20 -1 0 5 6 7 13 3 9 -6
8 -3 -1 8 -12 15 -52 21 -52 8z"/>
<path d="M1870 1800 c0 -5 5 -10 11 -10 5 0 7 5 4 10 -3 6 -8 10 -11 10 -2 0
-4 -4 -4 -10z"/>
<path d="M2999 1758 c-5 -18 -6 -38 -1 -34 7 8 12 36 6 36 -2 0 -4 -1 -5 -2z"/>
<path d="M4835 1742 c3 -3 -1 -12 -7 -21 -8 -10 -4 -9 10 3 26 23 26 23 7 23
-8 0 -13 -3 -10 -5z"/>
<path d="M4875 1742 c3 -3 -3 -15 -12 -26 -13 -15 -10 -14 10 3 32 29 31 28
12 28 -8 0 -13 -3 -10 -5z"/>
<path d="M2015 1670 c-6 -9 25 -44 32 -36 4 4 1 11 -7 17 -11 7 -7 8 14 5 16
-3 31 -8 35 -12 3 -4 -2 -4 -11 -1 -16 6 -22 -2 -20 -24 1 -4 -6 -6 -15 -5 -9
0 -17 -5 -19 -12 -1 -7 0 -8 3 -2 2 5 9 10 14 10 6 0 8 -4 5 -8 -3 -5 6 -8 19
-8 14 1 25 6 24 11 0 6 -5 9 -10 8 -5 -2 -9 2 -9 7 0 6 6 10 14 10 8 0 13 11
13 28 0 15 -2 21 -4 15 -3 -7 -9 -13 -14 -13 -6 0 -8 4 -5 8 2 4 -9 8 -26 7
-16 0 -31 -2 -33 -5z"/>
<path d="M1470 1660 c0 -5 5 -10 10 -10 6 0 10 5 10 10 0 6 -4 10 -10 10 -5 0
-10 -4 -10 -10z"/>
<path d="M1500 1642 c0 -5 7 -9 15 -9 8 0 12 4 9 9 -3 4 -9 8 -15 8 -5 0 -9
-4 -9 -8z"/>
<path d="M2581 1629 c-16 -13 -21 -25 -16 -36 6 -16 9 -14 21 10 8 15 19 25
24 22 6 -4 10 -2 10 4 0 19 -15 19 -39 0z"/>
<path d="M1450 1619 c0 -5 5 -7 10 -4 6 3 10 8 10 11 0 2 -4 4 -10 4 -5 0 -10
-5 -10 -11z"/>
<path d="M1472 1598 c2 -6 10 -13 16 -14 7 -1 8 0 2 3 -5 2 -8 9 -4 14 3 5 0
9 -6 9 -7 0 -10 -5 -8 -12z"/>
<path d="M3700 1576 c0 -2 7 -9 15 -16 9 -7 15 -8 15 -2 0 5 -7 12 -15 16 -8
3 -15 4 -15 2z"/>
<path d="M3749 1567 c6 -6 2 -16 -12 -28 -18 -14 -20 -20 -9 -31 11 -11 12
-10 7 4 -4 11 0 18 14 23 22 7 25 42 4 42 -9 0 -10 -4 -4 -10z"/>
<path d="M3875 1569 c-4 -6 -5 -12 -2 -15 2 -3 7 2 10 11 7 17 1 20 -8 4z"/>
<path d="M4053 1562 c1 -23 37 -54 37 -32 0 5 -7 10 -16 10 -8 0 -13 4 -10 8
2 4 1 14 -4 22 -7 11 -9 9 -7 -8z"/>
<path d="M4097 1573 c-10 -10 -8 -23 4 -23 5 0 7 5 3 11 -4 8 1 9 17 4 19 -5
21 -4 9 4 -18 13 -24 13 -33 4z"/>
<path d="M4159 1571 c9 -6 11 -16 7 -27 -6 -15 -4 -16 5 -7 14 14 5 43 -13 43
-10 0 -9 -3 1 -9z"/>
<path d="M4194 1561 c0 -11 3 -18 7 -15 4 2 9 -2 12 -8 2 -7 7 -11 10 -8 3 3
-2 16 -12 28 -16 21 -17 22 -17 3z"/>
<path d="M2770 1560 c0 -5 5 -10 10 -10 6 0 10 5 10 10 0 6 -4 10 -10 10 -5 0
-10 -4 -10 -10z"/>
<path d="M3800 1560 c8 -5 20 -10 25 -10 6 0 3 5 -5 10 -8 5 -19 10 -25 10 -5
0 -3 -5 5 -10z"/>
<path d="M3914 1545 c0 -28 8 -24 13 5 2 11 -1 20 -5 20 -4 0 -8 -11 -8 -25z"/>
<path d="M4290 1560 c0 -5 5 -10 11 -10 5 0 7 5 4 10 -3 6 -8 10 -11 10 -2 0
-4 -4 -4 -10z"/>
<path d="M1274 1524 c0 -22 1 -22 18 -7 19 17 17 26 -5 29 -8 1 -13 -9 -13
-22z"/>
<path d="M3601 1536 c-15 -17 0 -29 41 -32 20 -2 25 1 21 12 -3 8 -8 12 -11 9
-3 -3 -13 2 -22 10 -15 13 -19 14 -29 1z m28 -10 c11 -14 6 -15 -27 -7 -4 1 8
21 12 21 2 0 9 -6 15 -14z"/>
<path d="M3842 1541 c-10 -6 -10 -10 2 -20 11 -9 16 -9 22 0 5 8 3 9 -6 4 -10
-6 -12 -4 -7 8 7 19 7 20 -11 8z"/>
<path d="M2755 1531 c-3 -5 -2 -12 3 -15 5 -3 9 1 9 9 0 17 -3 19 -12 6z"/>
<path d="M3795 1529 c-11 -16 -1 -19 13 -3 7 8 8 14 3 14 -5 0 -13 -5 -16 -11z"/>
<path d="M4020 1536 c0 -2 7 -7 16 -10 8 -3 12 -2 9 4 -6 10 -25 14 -25 6z"/>
<path d="M2250 1521 c0 -6 4 -13 10 -16 6 -3 7 1 4 9 -7 18 -14 21 -14 7z"/>
<path d="M2793 1505 c0 -7 6 -11 14 -8 7 3 13 6 13 8 0 2 -6 5 -13 8 -8 3 -14
-1 -14 -8z"/>
<path d="M3750 1510 c0 -6 7 -10 15 -10 8 0 15 2 15 4 0 2 -7 6 -15 10 -8 3
-15 1 -15 -4z"/>
<path d="M4946 1512 c-3 -2 -2 -10 1 -17 6 -16 33 -8 33 9 0 12 -25 18 -34 8z"/>
<path d="M4115 1500 c-3 -5 -1 -10 4 -10 6 0 11 5 11 10 0 6 -2 10 -4 10 -3 0
-8 -4 -11 -10z"/>
<path d="M4195 1501 c3 -5 0 -11 -7 -13 -7 -3 -5 -7 6 -11 9 -4 15 -3 11 2 -3
5 0 11 7 13 7 3 5 7 -6 11 -9 4 -15 3 -11 -2z"/>
<path d="M4233 1483 c4 -6 0 -13 -8 -16 -8 -4 -12 -15 -10 -26 3 -14 -2 -19
-16 -18 -11 1 -19 9 -19 20 0 11 4 15 12 11 7 -5 8 -3 3 5 -10 17 -28 -2 -23
-25 5 -27 53 -26 53 1 0 11 6 25 14 31 11 9 12 12 1 19 -8 5 -11 4 -7 -2z"/>
<path d="M3132 1454 c9 -20 13 -21 25 -8 10 9 20 11 32 5 13 -7 17 -5 17 9 0
13 -4 16 -12 10 -6 -6 -14 -7 -18 -3 -4 4 -18 8 -31 9 -21 1 -22 -2 -13 -22z"/>
<path d="M1416 1461 c-3 -4 4 -17 17 -27 l22 -19 -20 24 c-18 22 -18 24 -2 18
11 -4 16 -3 12 3 -8 12 -22 13 -29 1z"/>
<path d="M2294 1434 c2 -12 12 -19 29 -19 14 -1 24 2 21 7 -3 5 -9 7 -12 4 -3
-3 -13 1 -23 10 -16 14 -17 14 -15 -2z"/>
<path d="M4930 1440 c0 -5 5 -10 10 -10 6 0 10 5 10 10 0 6 -4 10 -10 10 -5 0
-10 -4 -10 -10z"/>
<path d="M2490 1330 c-6 -12 -5 -17 6 -17 9 0 13 6 9 16 -3 11 -1 11 9 -3 15
-18 15 -18 13 1 -1 24 -25 26 -37 3z"/>
<path d="M2019 1273 c-12 -16 -12 -17 2 -6 9 7 20 9 24 5 5 -4 5 -1 1 6 -9 16
-11 15 -27 -5z"/>
<path d="M4834 1276 c1 -8 5 -18 8 -22 4 -3 5 1 4 10 -1 8 -5 18 -8 22 -4 3
-5 -1 -4 -10z"/>
<path d="M4867 1279 c7 -7 15 -10 18 -7 3 3 -2 9 -12 12 -14 6 -15 5 -6 -5z"/>
<path d="M2016 1242 c-3 -5 1 -9 9 -9 8 0 12 4 9 9 -3 4 -7 8 -9 8 -2 0 -6 -4
-9 -8z"/>
<path d="M3002 1190 c-7 -11 -8 -20 -3 -20 5 0 12 6 14 13 4 10 6 10 6 0 1 -7
9 -13 19 -13 16 1 16 1 -1 11 -9 6 -15 14 -12 20 4 5 2 9 -2 9 -5 0 -14 -9
-21 -20z"/>
<path d="M4371 1198 c-1 -22 11 -29 29 -16 12 8 12 9 -2 4 -10 -3 -18 1 -21
12 -4 16 -5 16 -6 0z"/>
<path d="M2285 1190 c-3 -6 1 -7 9 -4 18 7 21 14 7 14 -6 0 -13 -4 -16 -10z"/>
<path d="M2326 1187 c3 -10 9 -15 12 -12 3 3 0 11 -7 18 -10 9 -11 8 -5 -6z"/>
<path d="M3066 1182 c-3 -5 1 -9 9 -9 8 0 15 4 15 9 0 4 -4 8 -9 8 -6 0 -12
-4 -15 -8z"/>
<path d="M4353 1164 c0 -17 2 -22 7 -13 5 6 6 18 3 26 -8 19 -10 16 -10 -13z"/>
<path d="M2294 1164 c-18 -14 -18 -15 4 -4 12 6 22 13 22 15 0 8 -5 6 -26 -11z"/>
<path d="M4403 1163 c-15 -5 -17 -23 -4 -23 5 0 11 7 15 15 3 8 4 15 3 14 -1
0 -8 -3 -14 -6z"/>
<path d="M3648 1113 c6 -2 9 -10 6 -15 -4 -7 -2 -8 5 -4 13 9 5 26 -12 25 -9
0 -8 -2 1 -6z"/>
<path d="M2710 1089 c0 -5 5 -7 10 -4 6 3 10 8 10 11 0 2 -4 4 -10 4 -5 0 -10
-5 -10 -11z"/>
<path d="M3353 1080 c-3 -12 -11 -19 -17 -17 -7 3 -13 -5 -14 -19 -1 -18 3
-22 19 -19 11 2 28 14 38 27 17 20 21 21 36 8 17 -14 17 -14 4 7 -7 12 -15 20
-17 18 -3 -2 -13 0 -24 6 -16 9 -20 7 -25 -11z m20 -15 c-3 -8 -10 -15 -15
-15 -7 0 -6 5 1 13 6 8 7 18 3 22 -4 5 -2 5 5 1 7 -4 10 -13 6 -21z"/>
<path d="M3665 1079 c-4 -6 -4 -13 -1 -16 3 -4 6 -1 6 6 0 7 5 9 12 5 7 -4 8
-3 4 4 -9 15 -13 15 -21 1z"/>
<path d="M4259 1073 c-13 -17 -13 -17 6 -3 11 8 22 16 24 17 2 2 0 3 -6 3 -6
0 -17 -8 -24 -17z"/>
<path d="M3635 1060 c3 -5 8 -10 11 -10 2 0 4 5 4 10 0 6 -5 10 -11 10 -5 0
-7 -4 -4 -10z"/>
<path d="M3610 1040 c0 -5 5 -10 10 -10 6 0 10 5 10 10 0 6 -4 10 -10 10 -5 0
-10 -4 -10 -10z"/>
<path d="M4245 1040 c-2 -3 7 -6 21 -6 13 0 24 3 24 7 0 9 -40 8 -45 -1z"/>
<path d="M2585 1030 c-3 -6 1 -7 9 -4 18 7 21 14 7 14 -6 0 -13 -4 -16 -10z"/>
<path d="M2670 1026 c7 -7 14 -6 21 1 9 9 7 12 -9 10 -14 -1 -18 -5 -12 -11z"/>
<path d="M3630 1020 c-13 -8 -12 -10 3 -10 9 0 17 5 17 10 0 12 -1 12 -20 0z"/>
<path d="M3661 1004 c0 -11 3 -14 6 -6 3 7 2 16 -1 19 -3 4 -6 -2 -5 -13z"/>
<path d="M4173 1007 c0 -7 9 -14 20 -14 11 -1 18 -1 16 0 -2 2 -11 8 -20 15
-12 9 -16 9 -16 -1z"/>
<path d="M3137 993 c5 -12 3 -14 -7 -8 -9 5 -11 4 -6 -4 4 -6 12 -9 17 -6 12
8 12 35 -1 35 -5 0 -6 -7 -3 -17z"/>
<path d="M4674 995 c3 -23 12 -26 13 -5 1 11 -2 20 -7 20 -4 0 -7 -7 -6 -15z"/>
<path d="M630 990 c-11 -7 -11 -10 -2 -10 7 0 10 -4 7 -10 -4 -6 1 -7 11 -3
11 4 13 8 6 11 -7 2 -10 8 -6 13 7 11 3 11 -16 -1z"/>
<path d="M3620 986 c0 -2 7 -6 15 -10 8 -3 15 -1 15 4 0 6 -7 10 -15 10 -8 0
-15 -2 -15 -4z"/>
<path d="M3661 964 c0 -11 3 -14 6 -6 3 7 2 16 -1 19 -3 4 -6 -2 -5 -13z"/>
<path d="M4170 976 c0 -2 8 -10 18 -17 15 -13 16 -12 3 4 -13 16 -21 21 -21
13z"/>
<path d="M4219 978 c-5 -18 -6 -38 -1 -34 7 8 12 36 6 36 -2 0 -4 -1 -5 -2z"/>
<path d="M4634 960 c0 -13 4 -16 10 -10 7 7 7 13 0 20 -6 6 -10 3 -10 -10z"/>
<path d="M3145 960 c-3 -5 -2 -10 4 -10 5 0 13 5 16 10 3 6 2 10 -4 10 -5 0
-13 -4 -16 -10z"/>
<path d="M3195 959 c-4 -6 -4 -13 -1 -16 3 -4 6 -1 6 5 0 7 4 12 10 12 5 0 7
-8 4 -17 -5 -15 -4 -15 4 -3 11 15 7 30 -8 30 -5 0 -12 -5 -15 -11z"/>
<path d="M3605 960 c-3 -5 -2 -10 4 -10 5 0 13 5 16 10 3 6 2 10 -4 10 -5 0
-13 -4 -16 -10z"/>
<path d="M3630 940 c0 -5 5 -10 10 -10 6 0 10 5 10 10 0 6 -4 10 -10 10 -5 0
-10 -4 -10 -10z"/>
<path d="M1275 920 c3 -5 8 -10 11 -10 2 0 4 5 4 10 0 6 -5 10 -11 10 -5 0 -7
-4 -4 -10z"/>
<path d="M2116 918 c3 -5 10 -6 15 -3 13 9 11 12 -6 12 -8 0 -12 -4 -9 -9z"/>
<path d="M2149 917 c-1 -7 -1 -18 0 -25 2 -10 -5 -9 -26 3 -15 10 -21 11 -12
4 21 -19 23 -30 7 -40 -10 -7 -9 -9 3 -9 9 0 20 8 24 18 6 16 7 16 20 -1 11
-16 13 -16 19 -2 3 9 2 13 -4 10 -6 -3 -10 -2 -10 4 0 5 5 13 11 16 5 4 8 12
6 18 -4 14 -37 18 -38 4z m25 -12 c-4 -8 -11 -12 -16 -9 -6 4 -5 10 3 15 19
12 19 11 13 -6z"/>
<path d="M4055 921 c-7 -12 12 -24 24 -17 5 3 14 -1 21 -10 12 -13 9 -14 -19
-9 -30 5 -32 4 -17 -10 9 -9 21 -13 26 -10 6 4 19 1 28 -7 15 -12 16 -11 3 4
-11 15 -11 19 3 24 9 3 16 11 16 16 0 6 -6 5 -15 -2 -17 -14 -21 0 -5 16 7 7
6 11 -4 11 -8 0 -13 -4 -11 -7 3 -4 -6 -7 -20 -7 -14 0 -22 3 -19 8 3 5 3 9 0
9 -3 0 -7 -4 -11 -9z"/>
<path d="M757 897 c10 -12 19 -24 21 -26 1 -3 1 6 -1 19 -2 13 -12 24 -21 26
-17 2 -17 1 1 -19z"/>
<path d="M1730 818 c0 -4 4 -8 9 -8 6 0 12 4 15 8 3 5 -1 9 -9 9 -8 0 -15 -4
-15 -9z"/>
<path d="M1786 809 c21 -23 23 -23 20 -2 -2 9 -11 17 -20 19 -17 2 -17 2 0
-17z"/>
<path d="M2401 796 c-9 -11 -9 -16 1 -22 7 -4 10 -4 6 1 -4 4 -3 14 3 22 6 7
9 13 6 13 -2 0 -10 -6 -16 -14z"/>
<path d="M3065 730 c-2 -3 0 -12 4 -19 7 -11 14 -10 35 4 14 10 26 18 26 19 0
4 -62 1 -65 -4z m35 -6 c0 -8 -19 -13 -24 -6 -3 5 1 9 9 9 8 0 15 -2 15 -3z"/>
<path d="M3800 720 c10 -6 11 -10 3 -10 -7 0 -13 -5 -13 -11 0 -8 5 -8 15 1
16 13 11 30 -8 30 -7 0 -6 -4 3 -10z"/>
<path d="M1934 697 c9 -15 14 -33 10 -39 -4 -7 -3 -8 4 -4 17 10 15 21 -9 47
l-21 24 16 -28z"/>
<path d="M3235 711 c-3 -5 -2 -12 3 -15 5 -3 9 1 9 9 0 17 -3 19 -12 6z"/>
<path d="M3830 711 c0 -6 5 -13 12 -17 6 -4 8 -3 4 4 -3 5 0 13 6 15 8 3 6 6
-4 6 -10 1 -18 -3 -18 -8z"/>
<path d="M1554 696 c3 -21 16 -34 33 -32 16 3 28 35 15 37 -32 6 -50 4 -48 -5z
m35 -10 c11 -14 6 -15 -27 -7 -4 1 8 21 12 21 2 0 9 -6 15 -14z"/>
<path d="M3070 679 c0 -5 5 -7 10 -4 6 3 10 8 10 11 0 2 -4 4 -10 4 -5 0 -10
-5 -10 -11z"/>
<path d="M3810 680 c0 -5 5 -10 10 -10 6 0 10 5 10 10 0 6 -4 10 -10 10 -5 0
-10 -4 -10 -10z"/>
<path d="M1915 670 c3 -5 8 -10 11 -10 2 0 4 5 4 10 0 6 -5 10 -11 10 -5 0 -7
-4 -4 -10z"/>
<path d="M920 660 c0 -5 5 -10 11 -10 5 0 7 5 4 10 -3 6 -8 10 -11 10 -2 0 -4
-4 -4 -10z"/>
<path d="M1750 635 c8 -11 15 -21 15 -22 0 -1 7 8 14 20 13 19 12 20 -1 10
-11 -10 -17 -10 -28 0 -11 10 -11 8 0 -8z"/>
<path d="M1795 620 c3 -6 1 -10 -6 -10 -7 0 -10 -3 -6 -6 3 -3 13 -2 22 4 16
8 16 9 1 15 -10 4 -15 3 -11 -3z"/>
<path d="M2228 623 c7 -3 16 -2 19 1 4 3 -2 6 -13 5 -11 0 -14 -3 -6 -6z"/>
<path d="M1754 589 c-3 -6 -3 -13 0 -16 3 -4 6 -1 6 7 0 10 3 10 15 0 9 -7 15
-8 15 -2 0 14 -28 23 -36 11z"/>
<path d="M2195 580 c-3 -5 -1 -10 4 -10 6 0 11 5 11 10 0 6 -2 10 -4 10 -3 0
-8 -4 -11 -10z"/>
<path d="M1990 551 c0 -6 -11 -13 -25 -17 -29 -7 -33 -20 -7 -27 9 -2 26 -8
37 -13 18 -7 19 -6 5 11 -9 11 -10 16 -2 11 6 -4 12 -2 12 3 0 6 -6 11 -12 11
-10 0 -9 3 1 9 9 6 10 11 2 15 -6 4 -11 3 -11 -3z"/>
<path d="M2031 533 c7 -12 15 -20 18 -17 3 2 -3 12 -13 22 -17 16 -18 16 -5
-5z"/>
<path d="M1079 516 c9 -11 9 -15 -1 -19 -8 -4 -7 -6 5 -6 9 -1 17 -6 17 -13 0
-6 2 -9 5 -6 8 8 -16 58 -28 58 -5 0 -4 -6 2 -14z"/>
<path d="M3424 506 c0 -12 6 -23 13 -23 9 0 10 4 3 12 -5 7 -7 14 -4 17 3 3 1
8 -3 11 -5 3 -9 -5 -9 -17z"/>
<path d="M3335 500 c-3 -5 -1 -10 4 -10 6 0 11 5 11 10 0 6 -2 10 -4 10 -3 0
-8 -4 -11 -10z"/>
<path d="M1125 480 c3 -5 8 -10 11 -10 2 0 4 5 4 10 0 6 -5 10 -11 10 -5 0 -7
-4 -4 -10z"/>
<path d="M3050 461 c0 -6 5 -11 11 -11 5 0 7 -5 3 -12 -4 -7 -3 -8 4 -4 7 4
12 3 12 -3 0 -5 -6 -12 -12 -14 -10 -4 -10 -6 0 -6 7 -1 15 6 18 14 4 8 10 12
16 9 5 -3 4 3 -4 15 -7 12 -15 16 -16 11 -3 -7 -9 -7 -18 1 -10 8 -14 8 -14 0z"/>
<path d="M3110 459 c0 -9 29 -22 58 -25 26 -3 28 2 8 22 -17 16 -30 19 -21 4
3 -5 1 -10 -4 -10 -6 0 -11 4 -11 8 0 5 -7 9 -15 9 -8 0 -15 -4 -15 -8z"/>
<path d="M2435 451 c-3 -5 -2 -12 3 -15 5 -3 9 1 9 9 0 17 -3 19 -12 6z"/>
<path d="M3030 455 c0 -5 5 -17 10 -25 5 -8 10 -10 10 -5 0 6 -5 17 -10 25 -5
8 -10 11 -10 5z"/>
<path d="M3108 419 c-10 -11 -15 -19 -10 -19 4 0 0 -5 -8 -10 -9 -6 -10 -10
-3 -10 7 0 17 10 24 22 10 19 12 20 21 4 7 -12 13 -14 22 -7 7 6 21 9 32 7 14
-3 20 2 21 16 2 16 -1 17 -12 8 -8 -6 -19 -9 -24 -6 -5 4 -13 1 -16 -4 -5 -8
-11 -7 -18 3 -10 12 -15 11 -29 -4z"/>
<path d="M1210 420 c0 -5 5 -10 11 -10 5 0 7 5 4 10 -3 6 -8 10 -11 10 -2 0
-4 -4 -4 -10z"/>
<path d="M2414 400 c0 -13 4 -16 10 -10 7 7 7 13 0 20 -6 6 -10 3 -10 -10z"/>
<path d="M2450 400 c0 -5 5 -10 11 -10 5 0 7 5 4 10 -3 6 -8 10 -11 10 -2 0
-4 -4 -4 -10z"/>
<path d="M2950 401 c0 -6 4 -13 10 -16 6 -3 7 1 4 9 -7 18 -14 21 -14 7z"/>
<path d="M3027 393 c6 -15 29 -17 38 -3 4 6 -1 7 -11 3 -10 -4 -15 -2 -11 4 3
5 0 10 -7 10 -8 0 -12 -6 -9 -14z"/>
<path d="M1356 341 c-4 -6 -2 -11 4 -11 6 0 8 -4 5 -10 -3 -5 -1 -10 4 -10 13
0 14 10 2 29 -6 9 -11 10 -15 2z"/>
<path d="M3910 347 c0 -3 11 -17 25 -31 23 -23 34 -24 17 -1 -11 15 -42 38
-42 32z"/>
<path d="M3916 305 c5 -11 2 -14 -12 -9 -11 4 -16 4 -13 0 4 -4 16 -8 28 -11
18 -3 20 -1 11 16 -13 23 -22 26 -14 4z"/>
<path d="M1549 264 c-1 -5 -3 -24 -5 -43 -2 -32 -2 -33 13 -11 8 12 21 19 29
16 7 -3 16 0 20 7 4 7 3 9 -1 4 -5 -4 -19 3 -32 15 -13 12 -24 17 -24 12z m16
-23 c3 -5 2 -12 -3 -15 -5 -3 -9 1 -9 9 0 17 3 19 12 6z"/>
<path d="M3716 261 c-3 -4 -1 -13 3 -19 6 -10 11 -10 20 2 7 8 20 12 29 9 9
-3 14 -3 10 2 -10 10 -57 15 -62 6z"/>
<path d="M3731 229 c-18 -14 -19 -19 -7 -19 9 0 16 -4 16 -10 0 -5 6 -10 14
-10 13 0 20 46 7 54 -3 2 -17 -4 -30 -15z m26 -14 c0 -8 -4 -12 -9 -9 -5 3 -6
10 -3 15 9 13 12 11 12 -6z"/>
<path d="M1790 175 c0 -5 5 -17 10 -25 5 -8 10 -10 10 -5 0 6 -5 17 -10 25 -5
8 -10 11 -10 5z"/>
<path d="M3521 173 c-1 -17 16 -25 25 -12 4 7 3 9 -4 5 -5 -3 -13 0 -15 6 -4
9 -6 10 -6 1z"/>
<path d="M1745 159 c-4 -6 -4 -13 -1 -16 3 -4 6 -1 6 6 0 7 5 9 12 5 7 -4 8
-3 4 4 -9 15 -13 15 -21 1z"/>
<path d="M1745 120 c-10 -11 -14 -20 -9 -20 5 0 15 9 22 20 7 11 11 20 9 20
-2 0 -12 -9 -22 -20z"/>
<path d="M3573 114 c0 -17 2 -22 7 -13 5 6 6 18 3 26 -8 19 -10 16 -10 -13z"/>
<path d="M2055 60 c21 -24 26 -25 19 -6 -3 8 -13 17 -22 21 -13 5 -13 2 3 -15z"/>
<path d="M2012 58 c-7 -7 -12 -16 -12 -21 0 -5 7 -1 16 8 9 9 14 18 12 20 -2
3 -10 -1 -16 -7z"/>
<path d="M3260 62 c0 -7 5 -12 11 -12 5 0 7 -5 4 -11 -4 -6 2 -5 14 3 12 7 21
17 21 22 0 4 -6 4 -13 -3 -10 -8 -17 -7 -25 1 -9 9 -12 9 -12 0z"/>
<path d="M3245 20 c3 -5 8 -10 11 -10 2 0 4 5 4 10 0 6 -5 10 -11 10 -5 0 -7
-4 -4 -10z"/>
<path d="M3290 21 c0 -6 4 -12 8 -15 5 -3 9 1 9 9 0 8 -4 15 -9 15 -4 0 -8 -4
-8 -9z"/>
<path d="M2035 10 c3 -5 8 -10 11 -10 2 0 4 5 4 10 0 6 -5 10 -11 10 -5 0 -7
-4 -4 -10z"/>
</g>
</svg>
